<?xml version="1.0" encoding="UTF-8" standalone="no"?>
<!-- Created with Inkscape (http://www.inkscape.org/) -->
<svg
   xmlns:dc="http://purl.org/dc/elements/1.1/"
   xmlns:cc="http://web.resource.org/cc/"
   xmlns:rdf="http://www.w3.org/1999/02/22-rdf-syntax-ns#"
   xmlns:svg="http://www.w3.org/2000/svg"
   xmlns="http://www.w3.org/2000/svg"
   xmlns:sodipodi="http://inkscape.sourceforge.net/DTD/sodipodi-0.dtd"
   xmlns:inkscape="http://www.inkscape.org/namespaces/inkscape"
   width="210mm"
   height="297mm"
   id="svg2"
   sodipodi:version="0.32"
   inkscape:version="0.43"
   sodipodi:docbase="/home/az/Programmierung/WebSite/htdocs/projects/coding_for_dummies"
   sodipodi:docname="buchstabe.svg"
   inkscape:export-filename="/home/az/Programmierung/WebSite/htdocs/projects/coding_for_dummies/buchstabe.png"
   inkscape:export-xdpi="29.957151"
   inkscape:export-ydpi="29.957151">
  <defs
     id="defs4" />
  <sodipodi:namedview
     id="base"
     pagecolor="#ffffff"
     bordercolor="#666666"
     borderopacity="1.0"
     inkscape:pageopacity="0.0"
     inkscape:pageshadow="2"
     inkscape:zoom="0.98994949"
     inkscape:cx="270.38562"
     inkscape:cy="624.91772"
     inkscape:document-units="px"
     inkscape:current-layer="layer1"
     inkscape:window-width="1280"
     inkscape:window-height="949"
     inkscape:window-x="0"
     inkscape:window-y="25" />
  <metadata
     id="metadata7">
    <rdf:RDF>
      <cc:Work
         rdf:about="">
        <dc:format>image/svg+xml</dc:format>
        <dc:type
           rdf:resource="http://purl.org/dc/dcmitype/StillImage" />
      </cc:Work>
    </rdf:RDF>
  </metadata>
  <g
     inkscape:label="Ebene 1"
     inkscape:groupmode="layer"
     id="layer1">
    <text
       xml:space="preserve"
       style="font-size:53.06177139px;font-style:normal;font-weight:normal;fill:#000000;fill-opacity:1;stroke:none;stroke-width:1px;stroke-linecap:butt;stroke-linejoin:miter;stroke-opacity:1;font-family:Bitstream Vera Sans"
       x="44.290203"
       y="70.810623"
       id="text1307"
       transform="scale(0.778889,1.28388)"><tspan
         sodipodi:role="line"
         id="tspan1309"
         x="44.290203"
         y="70.810623">Buchstabe</tspan></text>
    <rect
       style="fill:#00e8ff;fill-opacity:1;fill-rule:evenodd;stroke:#000000;stroke-width:0.72505593px;stroke-linecap:butt;stroke-linejoin:miter;stroke-opacity:1"
       id="rect1311"
       width="91.463615"
       height="99.804848"
       x="97.709862"
       y="102.91891" />
    <g
       id="g3063"
       style="fill:#00008c;fill-opacity:1">
      <path
         d="M 113.09025,191.69222 C 113.22654,187.74474 113.18571,183.79199 113.18603,179.84236 C 112.95561,174.95517 114.7492,170.40886 116.36324,165.88613 C 118.38558,161.02799 120.10868,156.06246 122.21356,151.23946 C 123.60428,146.39031 125.65365,142.88022 129.53141,139.73202 C 180.15068,109.25245 126.33503,143.86602 140.84998,132.82922 C 148.2532,126.05783 149.23215,126.08087 160.61726,119.60616 C 162.36126,124.02842 166.33603,126.96308 169.26682,130.60547 C 172.22183,134.30529 173.85057,138.68324 175.32445,143.10077 C 176.7881,147.65295 176.7266,152.40873 176.73848,157.13139 C 176.70658,161.90471 176.92298,166.67375 176.33645,171.41006 C 175.93348,174.17662 175.29172,176.88528 174.78454,179.63332 L 158.54302,187.49231 C 158.99663,184.7457 159.66924,182.06243 160.13946,179.32586 C 160.76186,174.67832 160.74858,170.02284 160.67201,165.3158 C 160.66615,160.71748 160.88403,156.04562 159.40248,151.62251 C 158.10713,147.43017 156.56343,143.2873 153.7783,139.79985 C 150.55249,135.91814 146.47977,132.64753 144.44909,127.90641 C 155.92273,120.68847 168.16607,114.67998 157.64488,126.18094 C 146.82011,134.19834 117.1888,149.68498 146.28219,133.1637 C 142.17242,135.85141 139.84393,138.80977 138.55025,143.64733 C 136.48591,148.50064 134.69317,153.4551 132.67627,158.33118 C 131.08713,162.64593 129.28008,167.01601 129.25058,171.65706 C 129.25089,175.57412 129.20884,179.49452 129.34636,183.40932 L 113.09025,191.69222 z "
         id="path2186"
         style="fill:#00008c;fill-opacity:1;fill-rule:nonzero;stroke:none;stroke-width:1px;stroke-linecap:butt;stroke-linejoin:miter;stroke-opacity:1" />
      <path
         d="M 135.79032,157.05582 C 140.14662,156.88595 144.40647,157.43892 148.71659,157.93985 C 153.65822,158.98464 158.6557,159.13142 163.69309,159.14878 C 166.57276,159.55138 168.968,158.76487 171.57059,157.82628 L 157.35646,169.0116 C 154.62346,169.61034 151.94203,170.00008 149.10355,169.74522 C 144.03627,169.69584 139.06664,169.22561 134.0742,168.3598 C 129.7332,167.80085 125.41131,167.51676 121.03008,167.77976 L 135.79032,157.05582 z "
         id="path2188"
         style="fill:#00008c;fill-opacity:1;fill-rule:nonzero;stroke:none;stroke-width:1px;stroke-linecap:butt;stroke-linejoin:miter;stroke-opacity:1" />
    </g>
    <text
       xml:space="preserve"
       style="font-size:53.06177139px;font-style:normal;font-weight:normal;fill:#000000;fill-opacity:1;stroke:none;stroke-width:1px;stroke-linecap:butt;stroke-linejoin:miter;stroke-opacity:1;font-family:Bitstream Vera Sans"
       x="38.911263"
       y="280.79321"
       id="text3067"
       transform="scale(0.778889,1.28388)"><tspan
         sodipodi:role="line"
         id="tspan3069"
         x="38.911263"
         y="280.79321">Buchstabe</tspan></text>
    <rect
       style="fill:#00e8ff;fill-opacity:1;fill-rule:evenodd;stroke:#000000;stroke-width:0.72505593px;stroke-linecap:butt;stroke-linejoin:miter;stroke-opacity:1"
       id="rect3071"
       width="91.463615"
       height="99.804848"
       x="27.86034"
       y="372.51135" />
    <g
       id="g3073"
       transform="translate(-69.84949,269.5925)">
      <path
         d="M 113.09025,191.69222 C 113.22654,187.74474 113.18571,183.79199 113.18603,179.84236 C 112.95561,174.95517 114.7492,170.40886 116.36324,165.88613 C 118.38558,161.02799 120.10868,156.06246 122.21356,151.23946 C 123.60428,146.39031 125.65365,142.88022 129.53141,139.73202 C 180.15068,109.25245 126.33503,143.86602 140.84998,132.82922 C 148.2532,126.05783 149.23215,126.08087 160.61726,119.60616 C 162.36126,124.02842 166.33603,126.96308 169.26682,130.60547 C 172.22183,134.30529 173.85057,138.68324 175.32445,143.10077 C 176.7881,147.65295 176.7266,152.40873 176.73848,157.13139 C 176.70658,161.90471 176.92298,166.67375 176.33645,171.41006 C 175.93348,174.17662 175.29172,176.88528 174.78454,179.63332 L 158.54302,187.49231 C 158.99663,184.7457 159.66924,182.06243 160.13946,179.32586 C 160.76186,174.67832 160.74858,170.02284 160.67201,165.3158 C 160.66615,160.71748 160.88403,156.04562 159.40248,151.62251 C 158.10713,147.43017 156.56343,143.2873 153.7783,139.79985 C 150.55249,135.91814 146.47977,132.64753 144.44909,127.90641 C 155.92273,120.68847 168.16607,114.67998 157.64488,126.18094 C 146.82011,134.19834 117.1888,149.68498 146.28219,133.1637 C 142.17242,135.85141 139.84393,138.80977 138.55025,143.64733 C 136.48591,148.50064 134.69317,153.4551 132.67627,158.33118 C 131.08713,162.64593 129.28008,167.01601 129.25058,171.65706 C 129.25089,175.57412 129.20884,179.49452 129.34636,183.40932 L 113.09025,191.69222 z "
         id="path3075"
         style="fill:#000075;fill-opacity:1;fill-rule:nonzero;stroke:none;stroke-width:1px;stroke-linecap:butt;stroke-linejoin:miter;stroke-opacity:1" />
      <path
         d="M 135.79032,157.05582 C 140.14662,156.88595 144.40647,157.43892 148.71659,157.93985 C 153.65822,158.98464 158.6557,159.13142 163.69309,159.14878 C 166.57276,159.55138 168.968,158.76487 171.57059,157.82628 L 157.35646,169.0116 C 154.62346,169.61034 151.94203,170.00008 149.10355,169.74522 C 144.03627,169.69584 139.06664,169.22561 134.0742,168.3598 C 129.7332,167.80085 125.41131,167.51676 121.03008,167.77976 L 135.79032,157.05582 z "
         id="path3077"
         style="fill:#000075;fill-opacity:1;fill-rule:nonzero;stroke:none;stroke-width:1px;stroke-linecap:butt;stroke-linejoin:miter;stroke-opacity:1" />
    </g>
    <path
       style="fill:#000000;fill-opacity:1;fill-rule:nonzero;stroke:none;stroke-width:1px;stroke-linecap:butt;stroke-linejoin:miter;stroke-opacity:1"
       id="path3079"
       d="M 108.90903,250.70939 C 112.05597,253.69573 115.92181,255.67284 120.0755,256.65841 C 107.50256,265.48477 111.04333,266.02083 104.15432,258.95483 C 95.353958,257.54911 80.952604,266.95898 110.53464,252.9206 C 110.53167,253.71121 111.19493,254.22798 111.51013,254.85208 L 95.98188,264.07015 C 95.522183,263.20883 94.717807,262.48147 94.581878,261.44701 C 95.30683,250.77737 109.85738,246.00713 119.25642,248.99702 C 128.89748,258.12388 117.44913,262.92769 105.32143,267.04047 C 100.98585,265.43796 96.827295,263.37651 93.363142,260.23592 L 108.90903,250.70939 z " />
    <path
       style="fill:#000000;fill-opacity:1;fill-rule:nonzero;stroke:none;stroke-width:1px;stroke-linecap:butt;stroke-linejoin:miter;stroke-opacity:1"
       id="path3081"
       d="M 151.95277,252.01016 C 112.81585,279.2659 155.04017,242.54658 150.0642,258.69732 C 156.82919,262.2131 162.46822,256.63668 142.32963,265.53415 C 142.10215,263.46467 140.98523,264.10928 139.2337,263.68674 L 153.98103,253.27057 C 156.43777,254.37222 158.0519,254.43078 158.52357,257.5498 C 156.58391,267.78804 141.31228,275.61743 134.19226,267.35744 C 133.85405,252.51451 176.57028,243.74708 137.19253,262.7341 L 151.95277,252.01016 z " />
    <path
       style="fill:#000000;fill-opacity:1;fill-rule:nonzero;stroke:none;stroke-width:1px;stroke-linecap:butt;stroke-linejoin:miter;stroke-opacity:1"
       id="path3083"
       d="M 179.37727,259.70364 C 166.93484,263.65227 191.38193,244.01003 188.58117,256.0861 C 197.59834,264.18106 205.47089,255.1019 183.38168,267.46259 C 185.72984,263.42801 182.30735,262.3155 178.61983,261.69424 C 178.59633,261.66826 176.72005,261.63848 176.7137,261.63829 L 191.34927,251.09631 C 191.35071,251.09643 193.34355,251.20578 193.34535,251.26092 C 198.10083,252.77536 201.63962,254.9657 200.07265,260.52033 C 187.88131,267.75704 182.30208,275.37698 172.87686,265.04075 C 170.37409,254.59897 184.48414,248.93287 194.13751,248.9797 L 179.37727,259.70364 z " />
    <path
       style="fill:#00e8ff;fill-opacity:1;fill-rule:nonzero;stroke:none;stroke-width:1px;stroke-linecap:butt;stroke-linejoin:miter;stroke-opacity:1"
       id="path3087"
       d="M 75.573995,377.98861 C 79.322735,380.24223 82.719125,383.47247 85.857545,386.64646 C 89.574165,390.39177 92.556045,394.76993 95.503085,399.12213 C 98.515715,402.86805 100.95204,406.85516 103.35556,410.99259 C 106.04291,414.51419 108.50435,418.1744 111.41894,421.50845 C 114.14839,424.64597 115.50902,427.78975 115.96394,431.66005 C 102.30908,441.72716 94.967045,444.31572 82.077475,435.22132 C 77.414555,431.93638 72.846725,428.46843 68.023655,425.41795 C 61.607815,421.49812 55.357965,417.53587 48.266305,414.97194 C 35.666515,409.67516 34.421185,414.72782 52.006325,405.25233 C 50.855385,410.04058 54.218885,413.88755 56.521855,417.866 C 59.900675,423.17857 64.214655,427.82575 68.566975,432.36527 C 73.195905,435.6915 74.806555,439.81744 76.332165,444.98963 C 78.315125,448.31657 81.131035,451.21479 83.767325,454.09112 C 84.517305,454.84379 85.458585,455.34838 86.299395,455.97343 L 71.130735,465.67679 C 70.221615,464.94417 69.193905,464.34491 68.396355,463.47328 C 65.628605,460.39326 62.502915,457.45135 60.539695,453.80245 C 59.037595,448.86964 57.791905,444.9595 53.331675,441.69802 C 48.939275,437.00181 44.359155,432.37949 40.924525,426.92376 C 38.340205,422.50597 35.050485,418.20891 35.602645,412.87094 C 48.254675,404.37898 50.910295,398.6934 63.197865,404.90888 C 70.260425,407.69836 76.442825,411.9812 83.051935,415.67016 C 87.890765,418.82074 92.614225,422.18753 97.274225,425.6025 C 108.8175,433.53703 124.73064,425.66931 99.266335,438.68376 C 99.201515,436.82095 98.605055,433.3595 95.921885,430.83163 C 93.030835,427.36716 90.481285,423.65207 87.751245,420.05848 C 85.369465,415.96163 82.954205,411.99771 80.010245,408.25879 C 77.082225,403.99381 74.110675,399.72063 70.541855,395.95384 C 67.286345,392.81184 63.888695,389.8861 60.028105,387.51514 L 75.573995,377.98861 z " />
    <path
       style="fill:#000000;fill-opacity:1;fill-rule:nonzero;stroke:none;stroke-width:1px;stroke-linecap:butt;stroke-linejoin:miter;stroke-opacity:1"
       id="path5710"
       d="M 152.96291,417.67518 C 157.89552,417.69564 162.8141,418.31537 167.6452,419.28988 C 172.73803,420.22307 177.811,420.72474 182.99079,420.787 C 189.59613,421.94623 196.32908,421.81589 203.01012,421.79209 C 204.25352,422.21206 205.3978,421.43637 206.51273,421.27027 L 192.14483,432.31614 C 190.91167,432.33664 189.67522,432.4373 188.43923,432.37773 C 181.75142,432.32083 175.06659,432.12449 168.41949,431.35416 C 163.18374,431.22536 158.03687,430.53119 152.88577,429.58893 C 148.03602,428.73947 143.1414,428.06327 138.20267,428.39912 L 152.96291,417.67518 z " />
    <path
       style="fill:#000000;fill-opacity:1;fill-rule:nonzero;stroke:none;stroke-width:1px;stroke-linecap:butt;stroke-linejoin:miter;stroke-opacity:1"
       id="path5712"
       d="M 195.78214,407.28303 C 200.22671,410.43587 204.51913,414.01416 208.90477,417.33003 C 211.07884,418.6854 212.76757,420.49467 214.5151,422.3132 L 199.00748,431.5972 C 197.31209,429.89985 195.63294,428.2442 193.60961,426.9013 C 189.1795,423.49215 184.98289,419.75386 180.23626,416.80957 L 195.78214,407.28303 z " />
    <path
       style="fill:#000000;fill-opacity:1;fill-rule:nonzero;stroke:none;stroke-width:1px;stroke-linecap:butt;stroke-linejoin:miter;stroke-opacity:1"
       id="path5722"
       d="M 187.3081,434.84777 C 193.17563,435.24356 198.89308,435.05441 204.53402,433.55827 C 211.7846,426.88386 186.04813,449.13552 198.18289,433.85573 C 201.19433,431.79588 201.39759,430.29127 200.88318,427.15099 L 216.55778,418.09717 C 217.74393,421.76174 218.15897,424.25892 214.95881,427.14107 C 207.66002,433.97035 202.18015,442.90357 190.35038,444.58023 C 184.44962,445.59019 178.53665,445.548 172.54786,445.57171 L 187.3081,434.84777 z " />
    <rect
       style="fill:#00e8ff;fill-opacity:1;fill-rule:evenodd;stroke:#000000;stroke-width:0.72505593px;stroke-linecap:butt;stroke-linejoin:miter;stroke-opacity:1"
       id="rect5724"
       width="91.463615"
       height="99.804848"
       x="236.10077"
       y="372.12457" />
    <path
       style="fill:#00008c;fill-opacity:1;fill-rule:nonzero;stroke:none;stroke-width:1px;stroke-linecap:butt;stroke-linejoin:miter;stroke-opacity:1"
       id="path5726"
       d="M 267.73726,386.69165 C 267.57395,391.88087 269.06398,396.90528 269.53572,402.06886 C 270.51873,407.29963 270.79942,412.59426 270.45565,417.88639 C 269.89927,422.96963 269.2634,428.02316 268.50576,433.08133 C 266.95594,437.64206 266.68288,442.28036 266.61979,447.04736 C 266.25333,452.63262 271.38603,451.13522 275.65126,451.11381 C 280.31765,451.12731 284.99323,451.18383 289.57779,450.63263 C 271.27688,462.00424 274.99039,461.03426 281.44056,451.43791 C 284.51522,447.4398 285.26326,443.22068 284.24904,438.41911 C 281.36547,432.38663 276.85009,429.14732 270.67687,427.16629 C 256.70006,423.78337 249.2191,430.51616 271.62169,414.62051 C 277.08867,415.4845 282.2957,416.08837 287.66287,414.63422 C 305.70963,405.76588 272.61301,425.28865 282.78673,417.85865 C 286.4854,415.09145 287.43698,411.34078 288.33473,407.12832 C 285.61117,403.47673 280.35291,402.29094 276.12735,400.54703 C 271.80362,399.03464 267.6658,397.13823 263.37738,395.54912 C 262.12943,395.15194 260.80791,395.21479 259.52854,395.04833 L 274.21305,384.58407 C 275.58146,384.82258 276.98766,384.90027 278.29694,385.42127 C 282.56298,387.12512 286.79214,388.89996 291.06967,390.57808 C 295.9472,392.52548 301.60035,393.84649 304.29123,398.61295 C 304.01471,403.22504 303.20333,407.71856 299.49624,411.10115 C 291.73159,417.32198 282.90524,422.60213 273.39946,425.61573 C 267.85275,426.54065 262.49691,425.52841 256.92335,425.37948 C 271.3643,414.80761 271.05006,413.38555 285.49836,417.05569 C 292.0111,419.40428 296.8475,423.28914 299.94929,429.6764 C 301.41764,434.84439 301.03429,439.65921 298.02877,444.31824 C 291.0332,453.32165 291.21942,456.91919 275.17115,461.53592 C 270.48659,461.70195 265.77936,461.69919 261.08211,461.70756 C 255.91279,461.64756 250.19873,461.9524 250.55301,455.23172 C 250.5672,450.37993 250.61058,445.55049 252.27741,440.9279 C 253.08917,435.90545 253.91134,430.90084 254.2641,425.8083 C 254.7133,420.64196 254.69327,415.44382 253.56581,410.31623 C 253.21151,405.12108 251.90044,400.14136 251.48114,394.97455 L 267.73726,386.69165 z " />
  </g>
</svg>
