<?xml version="1.0" encoding="UTF-8" standalone="no"?>
<!-- Created with Inkscape (http://www.inkscape.org/) -->
<svg
   xmlns:dc="http://purl.org/dc/elements/1.1/"
   xmlns:cc="http://web.resource.org/cc/"
   xmlns:rdf="http://www.w3.org/1999/02/22-rdf-syntax-ns#"
   xmlns:svg="http://www.w3.org/2000/svg"
   xmlns="http://www.w3.org/2000/svg"
   xmlns:xlink="http://www.w3.org/1999/xlink"
   xmlns:sodipodi="http://inkscape.sourceforge.net/DTD/sodipodi-0.dtd"
   xmlns:inkscape="http://www.inkscape.org/namespaces/inkscape"
   width="210mm"
   height="297mm"
   id="svg2"
   sodipodi:version="0.32"
   inkscape:version="0.43"
   sodipodi:docbase="/home/az/Website/www.az2000.de/projects/coding_for_dummies"
   sodipodi:docname="muell_situation.svg">
  <defs
     id="defs4">
    <linearGradient
       id="linearGradient3152">
      <stop
         style="stop-color:#6f4ac4;stop-opacity:1;"
         offset="0"
         id="stop3154" />
      <stop
         style="stop-color:#000000;stop-opacity:0;"
         offset="1"
         id="stop3156" />
    </linearGradient>
    <radialGradient
       inkscape:collect="always"
       xlink:href="#linearGradient3152"
       id="radialGradient3160"
       cx="91.527267"
       cy="90.367599"
       fx="91.527267"
       fy="90.367599"
       r="65.699013"
       gradientTransform="matrix(1,0,0,0.5594,0,39.81595)"
       gradientUnits="userSpaceOnUse"
       spreadMethod="pad" />
  </defs>
  <sodipodi:namedview
     id="base"
     pagecolor="#ffffff"
     bordercolor="#666666"
     borderopacity="1.0"
     inkscape:pageopacity="0.0"
     inkscape:pageshadow="2"
     inkscape:zoom="1.4"
     inkscape:cx="262.26461"
     inkscape:cy="693.3507"
     inkscape:document-units="px"
     inkscape:current-layer="layer1"
     fill="#0000ff"
     inkscape:window-width="1202"
     inkscape:window-height="1190"
     inkscape:window-x="113"
     inkscape:window-y="25" />
  <metadata
     id="metadata7">
    <rdf:RDF>
      <cc:Work
         rdf:about="">
        <dc:format>image/svg+xml</dc:format>
        <dc:type
           rdf:resource="http://purl.org/dc/dcmitype/StillImage" />
      </cc:Work>
    </rdf:RDF>
  </metadata>
  <g
     inkscape:label="Ebene 1"
     inkscape:groupmode="layer"
     id="layer1">
    <path
       style="fill:#baae82;fill-opacity:1;fill-rule:nonzero;stroke:none;stroke-width:1px;stroke-linecap:butt;stroke-linejoin:miter;stroke-opacity:1"
       id="path1313"
       d="M 25.162476,127.94963 C 35.925297,132.60734 61.627944,125.44794 42.041506,136.25826 C 63.698168,123.84554 92.045948,128.7413 116.50095,128.80815 C 160.98016,129.10854 205.45747,129.0853 249.9372,128.91156 C 285.78878,128.88742 321.64078,128.81148 357.49229,128.8131 C 374.45741,128.71205 391.42337,128.77246 408.38707,128.4978 L 399.71562,134.79799 C 383.04135,134.51543 366.36453,134.58833 349.68877,134.48269 C 313.92749,134.4843 278.16571,134.40842 242.40435,134.3845 C 197.84699,134.20861 153.29204,134.19635 108.73501,134.45019 C 93.710519,134.48476 78.671021,134.41021 63.65118,134.84081 C 58.0066,135.00264 52.143077,135.00875 46.579339,136.10856 C 45.864563,136.24985 43.883573,137.11915 44.472203,136.68976 C 47.112759,134.7635 50.040335,133.26515 52.824402,131.55285 C 52.716333,131.75514 52.608264,131.95743 52.500196,132.15971 C 39.917011,139.24569 30.052385,137.27289 15.862814,134.25936 L 25.162476,127.94963 z " />
    <path
       style="fill:#baae82;fill-opacity:1;fill-rule:nonzero;stroke:none;stroke-width:1px;stroke-linecap:butt;stroke-linejoin:miter;stroke-opacity:1"
       id="path1321"
       d="M 518.72386,128.13517 C 504.79322,136.82086 487.16192,136.79419 471.03721,139.4821 C 456.04728,142.62655 472.4817,133.4497 471.40553,137.19652 C 473.93244,143.99502 475.79499,150.92098 476.29347,158.16754 C 476.44942,162.3595 476.4263,166.55704 476.40436,170.75144 C 477.21321,178.69364 474.8568,185.04084 463.9258,184.51593 C 456.30925,184.08626 449.40298,181.49883 442.39141,178.84088 C 438.9601,177.40609 435.43723,176.28389 431.89014,175.18401 C 438.31736,170.64312 437.64407,167.61246 439.41702,177.57203 C 440.59317,183.00446 443.50981,187.84866 445.74099,192.90142 C 447.12979,196.11518 448.52421,199.32187 449.86424,202.55776 C 453.5798,209.20375 448.22633,216.85238 439.39526,214.03481 C 433.23881,211.66201 426.92637,209.73427 420.75999,207.38671 C 417.37418,206.21174 414.08204,204.89107 410.55897,204.28432 C 410.89242,203.50736 407.48594,205.68595 408.22125,205.2686 C 421.79696,197.56336 415.53611,199.02922 414.96572,206.68279 C 414.24089,212.30642 417.00086,216.74859 419.31503,221.61943 C 422.28539,228.00804 424.31124,234.78147 427.29341,241.16098 C 429.71356,245.19223 430.25045,249.38562 429.541,253.85451 C 419.71775,261.66468 413.32186,261.15148 402.01202,259.69718 C 397.9415,259.43296 394.41481,257.36117 390.53426,256.64578 C 386.01205,257.33787 379.75256,261.58305 395.90055,252.67415 C 397.48258,251.80134 394.50218,256.15912 394.68534,257.95664 C 396.57893,263.96799 397.65908,270.16508 398.72165,276.36199 C 400.60409,287.2752 401.87173,286.2475 389.66342,293.23912 C 373.05552,291.1337 357.22335,285.41726 340.92987,281.8517 C 329.0774,278.57529 319.67335,282.95673 333.68106,276.31945 C 334.24619,280.40417 336.23072,284.27736 337.60522,288.19843 C 339.03413,291.74083 340.56292,295.24048 341.74702,298.86853 C 342.41409,302.19854 342.79059,305.56609 343.33541,308.91552 C 344.35546,318.49675 342.95163,317.61369 332.5909,323.42358 C 327.19754,322.93828 322.99488,324.88033 318.21252,327.193 C 312.71064,330.11561 307.117,328.92045 301.31482,327.88275 C 297.38667,327.53257 293.84966,326.11225 290.26625,324.5824 C 278.00376,322.01528 290.81948,319.2716 292.31524,318.55636 C 291.02934,322.03489 291.34273,325.75451 291.78531,329.36987 C 292.19868,333.09425 292.91256,336.73397 294.32522,340.20526 C 296.00975,343.18719 296.47493,346.00643 296.0528,349.33957 C 295.77235,351.90516 295.1964,354.41849 294.73551,356.95563 L 284.65707,361.83664 C 285.13641,359.31321 285.69073,356.80998 285.96878,354.26108 C 286.58944,351.1285 286.14842,348.54639 284.59229,345.70552 C 283.09008,342.12818 282.32673,338.39714 281.92018,334.53778 C 281.43406,330.77345 281.05559,326.93118 282.12008,323.22426 C 290.64324,317.02446 291.18616,314.40294 299.54315,318.38633 C 303.08861,319.81467 306.59347,321.12153 310.42915,321.54386 C 316.13303,322.5607 321.49087,323.33403 326.79293,320.33725 C 331.65662,318.06943 336.12558,316.6616 341.43466,316.49473 C 328.47081,324.03096 334.41192,322.93597 333.42525,314.12302 C 332.88394,310.8107 332.51906,307.48189 331.89664,304.18312 C 330.6933,300.62646 329.31624,297.12806 327.90654,293.63433 C 326.35109,289.5527 324.54554,285.47038 323.58953,281.23189 C 334.168,273.31545 336.63171,272.03518 349.54615,275.88074 C 365.69297,279.67784 381.80915,285.89903 398.45346,286.31379 C 386.31664,293.56636 391.03728,291.6412 388.92647,281.54735 C 387.94297,275.34981 386.98652,269.1407 384.85449,263.20761 C 383.62009,254.85086 391.40453,250.53734 399.63009,250.10174 C 403.42504,251.17268 406.94842,253.03902 410.96352,253.36459 C 420.38906,254.60417 435.05582,251.33566 419.27215,258.3772 C 420.61259,254.43929 419.78911,250.38569 417.70761,246.57645 C 414.68111,240.20945 412.8105,233.40092 409.73052,227.03762 C 407.35658,222.05948 404.31096,217.48468 405.03317,211.70541 C 405.39777,203.53297 410.2248,198.56071 419.6937,197.81134 C 423.23567,198.55127 426.61342,199.95199 430.0082,201.20701 C 436.11397,203.70854 442.41525,205.63482 448.65586,207.76617 C 448.65508,207.76675 440.91688,218.43978 440.07939,208.01993 C 438.75524,204.79174 437.38082,201.59111 436.03368,198.37517 C 433.85554,193.18656 430.94598,188.25178 429.59662,182.78523 C 427.7831,173.49251 429.60719,171.63745 441.10327,168.8181 C 444.66493,169.96666 448.18125,171.20658 451.63214,172.65712 C 458.44504,175.44904 465.33581,177.85476 472.80503,178.08426 C 476.40806,177.32292 462.88526,188.35969 466.45379,175.8208 C 466.43914,171.6275 466.52726,167.4342 466.45089,163.24132 C 466.09398,156.0347 464.49908,148.98163 461.52328,142.38398 C 460.87203,133.36614 473.16229,133.47516 479.76987,132.94066 C 486.09288,132.03487 535.33247,120.99911 508.24812,132.47436 L 518.72386,128.13517 z " />
    <path
       style="fill:#baae82;fill-opacity:1;fill-rule:nonzero;stroke:none;stroke-width:1px;stroke-linecap:butt;stroke-linejoin:miter;stroke-opacity:1"
       id="path1323"
       d="M 36.104112,354.02728 C 61.578089,354.74779 87.072398,354.68894 112.55541,354.74417 C 156.55718,354.78879 200.55886,354.73693 244.55998,354.51345 C 258.25531,354.61677 271.94764,354.11771 285.64127,354.09078 C 287.06091,354.09378 288.48053,354.09643 289.90017,354.10126 L 280.92361,360.62311 C 279.49436,360.62792 278.06512,360.63059 276.63586,360.63359 C 263.33009,360.60728 250.02568,360.10174 236.71808,360.21092 C 192.9287,359.98535 149.13872,359.93642 105.34865,359.98019 C 79.207536,360.03651 53.056782,359.99414 26.923912,360.69708 L 36.104112,354.02728 z " />
    <g
       id="g1401"
       style="fill:#15229d;fill-opacity:1;opacity:1;stroke:none;stroke-opacity:1">
      <path
         d="M 58.961255,261.88442 C 61.004987,263.60272 62.533885,265.83349 64.176119,267.91208 C 66.32162,271.03807 67.502863,274.64224 68.661968,278.21243 C 69.592114,282.44368 70.152345,286.73879 70.870662,291.00922 C 71.597339,295.25588 72.470438,299.46545 72.785826,303.76712 C 72.880902,307.58403 72.831301,311.40316 72.836159,315.221 C 72.835095,318.6474 72.932722,322.07812 72.681788,325.49038 C 71.266086,329.93858 73.383446,329.21594 77.320194,328.74688 C 82.760936,328.31676 88.229505,328.32929 93.683202,328.4246 C 101.06118,328.47472 108.43911,328.3912 115.81724,328.40135 C 122.05251,328.59797 128.12728,330.16386 134.35908,330.47861 C 139.80578,330.61244 145.25483,330.54422 150.70238,330.50854 C 158.26077,331.18808 165.96164,325.67562 150.73944,334.23911 C 151.99308,330.45225 151.47473,326.12806 151.54144,322.12735 C 152.14594,317.22881 154.15569,312.56924 155.97379,308.00853 C 159.6024,300.69264 165.85631,296.17465 169.60647,288.79751 C 171.71415,284.02823 175.05267,280.10282 178.4235,276.20563 C 183.13555,271.9832 188.19582,268.14774 193.21603,264.29716 C 196.33858,261.76227 200.64323,258.78527 203.54854,257.08418 C 199.22843,257.95272 194.86661,258.67846 190.48931,259.22945 C 185.51,260.1438 180.60526,260.65538 175.54205,260.59048 C 168.79336,260.58643 162.18914,261.88469 155.44796,262.03862 C 150.57684,262.58985 145.76319,263.50124 140.95577,264.4517 C 135.28785,265.87339 129.50044,266.26242 123.71369,266.82026 C 115.91278,268.57001 108.00095,269.11627 100.02745,269.18678 C 94.344011,269.22146 88.660511,269.17939 82.977001,269.18804 C 78.703452,269.10088 74.429239,269.55088 70.226868,268.72121 C 66.918704,268.70818 63.790372,267.72438 60.562097,267.17535 C 57.245462,267.00517 53.920142,267.07688 50.59982,267.0805 L 59.657287,260.49853 C 63.003996,260.49315 66.365234,260.38529 69.699787,260.70783 C 72.934235,261.33912 76.100801,262.17331 79.417847,262.2855 C 83.553684,262.90934 87.753888,262.61468 91.936012,262.67902 C 97.602774,262.68872 103.26956,262.6663 108.93625,262.70671 C 116.9308,262.64148 124.80336,261.93197 132.62395,260.21771 C 138.34307,259.57579 144.08802,259.27323 149.69485,257.82726 C 154.54468,256.77675 159.44569,255.84908 164.40175,255.50514 C 171.09437,255.3125 177.6925,254.00014 184.40888,254.14259 C 189.45755,254.00644 194.40302,253.43231 199.3804,252.56018 C 203.89662,251.96031 208.70093,250.5259 213.10798,251.08846 C 212.53115,255.04813 207.22787,257.11759 203.53737,260.15283 C 198.5524,264.01696 193.48112,267.79471 188.72476,271.93777 C 185.24054,275.7192 181.8413,279.64042 179.5568,284.30616 C 175.79246,291.74607 170.1494,296.50737 165.97659,303.45158 C 164.19353,307.88154 162.36146,312.45216 161.49535,317.15833 C 161.36123,321.34096 161.70329,325.61226 161.04084,329.7464 C 152.89763,334.97029 150.34999,337.67309 141.6665,337.07427 C 136.23072,337.04645 130.79199,337.10165 125.35873,336.9491 C 119.1656,336.50419 113.10668,334.89198 106.88022,334.89449 C 99.526039,334.90461 92.172135,334.82129 84.81808,334.86486 C 79.3438,334.95089 73.848335,334.77122 68.397571,335.38242 C 64.154521,335.67199 60.873565,335.36534 62.625728,330.40843 C 62.919977,327.05659 62.909411,323.67631 62.878793,320.29409 C 62.88751,316.49006 62.909655,312.68526 62.852751,308.88171 C 62.621978,304.60295 61.74435,300.42598 61.058384,296.20286 C 60.296209,291.98381 59.720868,287.73692 58.849458,283.53938 C 57.72343,280.07478 56.659113,276.54878 54.46728,273.57282 C 53.074168,271.8396 51.651371,269.41719 49.781055,268.55423 L 58.961255,261.88442 z "
         id="path1325"
         style="fill:#15229d;fill-opacity:1;fill-rule:nonzero;stroke:none;stroke-width:1px;stroke-linecap:butt;stroke-linejoin:miter;stroke-opacity:1" />
      <path
         d="M 73.516147,339.13825 C 89.275678,329.15859 80.334966,334.50309 77.253302,339.17738 C 76.253895,342.00698 77.489292,343.73508 79.583853,345.53851 C 89.374842,345.1894 70.355041,355.02004 77.438324,347.94609 C 79.831886,344.80134 79.46146,342.95854 76.449349,340.74201 C 74.969773,339.16197 73.960199,339.11293 72.088269,339.12809 L 81.051804,332.36714 C 82.908502,332.85215 84.473358,333.19654 85.900885,334.72144 C 89.116563,337.28967 90.159721,339.85196 87.744531,343.60338 C 83.544082,348.441 75.949204,355.79183 70.090703,351.53196 C 67.744639,349.36467 66.235269,347.13354 67.07508,343.80015 C 70.035436,338.45177 77.94655,330.14562 83.626711,333.98666 L 73.516147,339.13825 z "
         id="path1327"
         style="fill:#15229d;fill-opacity:1;fill-rule:nonzero;stroke:none;stroke-width:1px;stroke-linecap:butt;stroke-linejoin:miter;stroke-opacity:1" />
      <path
         d="M 131.03874,340.69708 C 122.54585,344.07995 140.09622,330.39126 133.97324,339.82654 C 134.01853,342.97988 136.71263,344.71334 139.22926,346.36685 C 147.23737,350.98463 154.46928,345.29532 140.5832,352.95274 C 142.78542,350.07951 142.24929,347.11509 140.64165,344.29273 C 136.66447,342.38777 132.11569,341.45118 127.75082,340.74673 C 126.45154,340.4822 125.27089,340.87499 124.02517,341.14445 L 132.89991,334.37198 C 134.23583,334.2475 135.53647,333.9581 136.88121,334.30731 C 141.38069,335.27592 146.32445,336.03343 150.24049,338.44167 C 152.27059,341.67066 152.66351,345.07037 150.9267,348.66547 C 141.56988,354.40547 138.77366,357.60508 129.86166,352.41251 C 126.92117,350.41526 124.07959,348.34542 123.84999,344.59924 C 126.2769,338.27661 133.47097,334.25917 140.21895,334.02728 L 131.03874,340.69708 z "
         id="path1329"
         style="fill:#15229d;fill-opacity:1;fill-rule:nonzero;stroke:none;stroke-width:1px;stroke-linecap:butt;stroke-linejoin:miter;stroke-opacity:1" />
    </g>
    <g
       id="g1387"
       style="fill:url(#radialGradient3160);fill-opacity:1.0;stroke:none;stroke-opacity:1">
      <path
         d="M 65.659004,126.28111 C 65.363784,116.87226 70.355322,116.20243 79.321963,111.03641 C 89.54461,108.80726 99.305319,106.76383 104.72927,117.12308 C 105.0977,117.71232 105.27711,118.38362 105.55104,119.01389 L 95.82101,124.42076 C 95.575167,123.79816 95.405076,123.14579 95.083481,122.55297 C 90.371292,112.74486 79.774509,115.26738 70.774847,117.87278 C 84.184462,109.73227 74.808037,113.90067 75.769568,121.12952 L 65.659004,126.28111 z "
         id="path1331"
         style="fill:url(#radialGradient3160);fill-opacity:1.0;fill-rule:nonzero;stroke:none;stroke-width:1px;stroke-linecap:butt;stroke-linejoin:miter;stroke-opacity:1" />
      <path
         d="M 83.104456,127.11963 C 77.92592,124.48368 74.678791,119.72779 71.573492,114.98712 C 70.006639,112.86402 70.041245,111.30782 70.405323,109.03074 L 80.736105,104.69175 C 80.203651,106.40227 79.327955,107.26699 81.070245,109.47495 C 83.937401,113.91686 87.115811,118.73381 92.268066,120.46188 L 83.104456,127.11963 z "
         id="path1333"
         style="fill:url(#radialGradient3160);fill-opacity:1.0;fill-rule:nonzero;stroke:none;stroke-width:1px;stroke-linecap:butt;stroke-linejoin:miter;stroke-opacity:1" />
      <path
         d="M 113.24697,104.02728 C 116.39185,106.03195 119.68175,106.29072 119.309,110.61618 C 118.16891,112.35393 117.88556,114.20834 117.60253,116.08604 L 107.68087,121.43366 C 107.61701,119.17744 107.77205,117.33507 109.15564,115.33025 C 109.1785,112.12241 106.75222,111.58585 104.06677,110.69708 L 113.24697,104.02728 z "
         id="path1335"
         style="fill:url(#radialGradient3160);fill-opacity:1.0;fill-rule:nonzero;stroke:none;stroke-width:1px;stroke-linecap:butt;stroke-linejoin:miter;stroke-opacity:1" />
      <path
         d="M 97.137964,115.70664 C 94.151336,110.25222 88.991468,105.94907 83.444716,103.21759 C 94.760263,95.191215 91.230854,98.376642 93.158916,107.91497 C 93.984956,115.23559 83.5711,117.51854 77.378327,118.23208 L 86.196948,111.66666 C 97.20023,109.72394 78.887432,120.37453 83.30617,113.1489 C 81.405595,102.94478 79.597051,101.60852 92.73041,97.074441 C 98.132242,100.56798 103.55422,104.58791 106.97687,110.10453 L 97.137964,115.70664 z "
         id="path1337"
         style="fill:url(#radialGradient3160);fill-opacity:1.0;fill-rule:nonzero;stroke:none;stroke-width:1px;stroke-linecap:butt;stroke-linejoin:miter;stroke-opacity:1" />
      <path
         d="M 62.087575,122.70968 C 58.255859,116.9382 53.323141,111.45026 48.403813,106.4286 C 39.666929,90.083856 70.490603,99.990396 75.975768,102.00408 C 83.502711,105.31851 91.449704,107.39923 99.20745,110.02205 C 100.37393,110.41615 101.50059,110.9296 102.62831,111.42284 L 93.328094,117.63383 C 92.236029,117.13901 91.163965,116.59124 90.01912,116.22374 C 82.355142,113.6309 74.5694,111.41971 67.247538,107.88385 C 52.193246,102.2495 41.338478,107.48237 56.519305,97.745425 C 57.427883,97.162666 56.667605,100.81978 57.744279,100.74301 C 62.737032,106.1589 67.817812,111.67238 72.198139,117.55809 L 62.087575,122.70968 z "
         id="path1339"
         style="fill:url(#radialGradient3160);fill-opacity:1.0;fill-rule:nonzero;stroke:none;stroke-width:1px;stroke-linecap:butt;stroke-linejoin:miter;stroke-opacity:1" />
      <path
         d="M 123.24697,116.17014 C 105.63883,127.03572 128.70828,111.87396 130.44462,102.82394 C 123.87122,93.902362 107.63184,85.847844 96.238536,87.530939 C 97.058266,86.481807 91.521574,89.898266 92.693231,89.291482 C 108.13618,81.293801 91.272058,92.217001 88.30003,102.60209 C 88.019643,106.65323 90.065381,108.36387 93.726333,109.04824 C 96.826223,109.09315 99.906573,108.66119 103.01461,108.53615 L 94.152556,115.03558 C 90.967238,115.25217 87.777261,115.83245 84.587039,115.52238 C 80.434212,114.48869 78.203555,111.87362 78.332214,107.44766 C 81.531904,94.924246 93.315192,85.173508 104.93697,81.073534 C 116.39371,80.393958 134.08544,88.382582 140.34862,97.822614 C 138.79932,110.05735 123.2036,117.87821 114.06677,122.83994 L 123.24697,116.17014 z "
         id="path1341"
         style="fill:url(#radialGradient3160);fill-opacity:1.0;fill-rule:nonzero;stroke:none;stroke-width:1px;stroke-linecap:butt;stroke-linejoin:miter;stroke-opacity:1" />
      <path
         d="M 114.23043,109.13825 C 115.78823,104.37214 113.62762,101.83561 109.6481,99.385726 C 96.726709,94.491468 82.163351,94.61022 68.495498,94.697678 C 65.44202,94.717216 56.748893,97.302164 59.399841,95.786717 C 62.189217,94.28239 64.978592,92.778064 67.767968,91.273737 C 67.575876,91.56375 67.383784,91.853763 67.191693,92.143776 C 67.466246,96.044665 69.719921,99.517273 73.103177,101.46853 C 73.11761,101.55052 74.098531,101.74069 74.120819,101.74678 L 64.856007,108.08908 C 64.844266,108.0843 63.694239,107.70468 63.703545,107.61951 C 60.100116,105.10115 57.601446,101.19492 57.115727,96.747647 C 74.003707,84.902529 98.701907,86.666185 118.76047,93.431139 C 122.93215,95.943568 125.86795,99.04192 124.341,103.98666 L 114.23043,109.13825 z "
         id="path1343"
         style="fill:url(#radialGradient3160);fill-opacity:1.0;fill-rule:nonzero;stroke:none;stroke-width:1px;stroke-linecap:butt;stroke-linejoin:miter;stroke-opacity:1" />
      <path
         d="M 30.659004,124.13825 C 29.144816,119.31103 28.784331,114.20769 28.68249,109.12276 C 28.466962,102.22799 26.658871,95.506877 25.828262,88.67768 C 28.992149,77.312082 47.02257,73.753476 57.197021,69.473332 C 66.021063,64.60907 72.285476,64.23048 81.237753,67.958781 C 86.847096,70.16531 86.198367,74.494171 84.529701,79.283414 C 83.532883,81.360035 83.246979,83.586966 82.94295,85.832887 L 72.960785,90.807998 C 73.237868,88.495889 73.416941,86.145039 74.43943,84.0086 C 75.942869,79.705313 77.333517,76.126904 72.060175,74.080774 C 63.595367,70.324242 57.135566,71.790966 48.882813,76.039204 C 44.077653,78.094634 39.271162,80.145735 34.468986,82.207086 C 33.763888,82.509752 31.713657,83.537175 32.352317,83.111872 C 46.855222,73.453971 36.84242,79.064496 35.744452,83.531979 C 36.330847,90.436493 37.999862,97.216026 38.471748,104.11691 C 38.570063,109.18143 38.745613,114.26999 40.769568,118.98666 L 30.659004,124.13825 z "
         id="path1345"
         style="fill:url(#radialGradient3160);fill-opacity:1.0;fill-rule:nonzero;stroke:none;stroke-width:1px;stroke-linecap:butt;stroke-linejoin:miter;stroke-opacity:1" />
      <path
         d="M 55.055282,82.014685 C 54.70316,85.14447 55.511356,88.080095 56.465514,91.024565 C 58.987758,99.558774 66.449892,102.65495 74.589369,104.57143 C 78.579642,105.47696 82.473803,105.84498 86.409196,104.91629 L 77.56693,111.72017 C 73.585602,112.13873 69.66934,111.70737 65.752552,110.6619 C 57.442497,108.39586 49.370928,105.29267 46.723713,96.422049 C 45.693949,93.410957 44.794417,90.386003 44.944718,87.166274 L 55.055282,82.014685 z "
         id="path1347"
         style="fill:url(#radialGradient3160);fill-opacity:1.0;fill-rule:nonzero;stroke:none;stroke-width:1px;stroke-linecap:butt;stroke-linejoin:miter;stroke-opacity:1" />
      <path
         d="M 93.525282,84.76244 C 98.518591,77.294627 111.45338,74.214158 120.10354,71.696778 C 127.16115,69.209975 131.52868,72.628802 135.3656,78.469396 C 137.91775,82.561182 140.74554,86.458766 143.51916,90.390654 C 145.74288,92.878345 147.60729,95.649946 149.7132,98.236414 C 151.86804,100.76286 154.64196,102.71399 157.22628,104.79224 L 147.83074,110.65396 C 145.17945,108.52327 142.26654,106.62132 140.10324,103.96577 C 137.97771,101.37234 136.09395,98.59499 133.87562,96.077206 C 131.10169,92.13539 128.42743,88.123417 125.90892,84.007038 C 122.03287,78.468384 118.12858,75.982178 111.45301,78.35099 C 105.28273,80.137523 87.582194,89.027811 105.7457,78.337457 C 106.45951,77.917335 102.81085,79.807827 103.61758,79.62016 L 93.525282,84.76244 z "
         id="path1349"
         style="fill:url(#radialGradient3160);fill-opacity:1.0;fill-rule:nonzero;stroke:none;stroke-width:1px;stroke-linecap:butt;stroke-linejoin:miter;stroke-opacity:1" />
      <path
         d="M 147.53268,117.59871 C 150.17712,123.0261 140.7787,123.5476 135.47577,120.2172 C 118.68834,112.32193 102.45426,102.65169 94.294865,85.376179 C 90.797745,78.345428 90.517172,74.217394 96.069251,68.715845 C 99.031559,65.749746 101.45101,63.222794 97.329035,60.83873 C 79.843414,61.472175 103.10334,49.769732 94.698947,59.454168 C 90.543345,66.001636 84.169807,69.483987 76.88158,72.364907 C 66.583544,75.382799 55.805069,76.2245 45.310066,78.471467 C 45.811679,77.737922 41.619215,80.259635 42.510538,79.751336 C 56.272387,71.903293 43.470824,79.201315 39.262069,92.484101 C 37.077182,102.69881 42.957076,112.05667 50.20126,118.74435 L 40.890362,124.51192 C 33.734967,117.44942 27.490755,107.64871 29.36078,97.200328 C 33.356207,84.213129 40.040366,75.931389 54.083023,71.828407 C 64.616561,69.839093 75.491824,69.080626 85.630007,65.490753 C 90.563606,63.210656 73.850917,74.412 84.512294,63.824726 C 90.042106,56.951021 97.892347,51.213155 106.59284,54.63364 C 111.29354,57.413921 109.93917,61.018582 106.27201,64.517936 C 100.85184,69.672873 100.39536,72.971346 103.65013,80.106073 C 110.89973,97.549514 127.8492,107.29185 144.62032,114.26148 C 153.65312,119.59211 148.85776,122.1485 138.35248,124.26851 L 147.53268,117.59871 z "
         id="path1351"
         style="fill:url(#radialGradient3160);fill-opacity:1.0;fill-rule:nonzero;stroke:none;stroke-width:1px;stroke-linecap:butt;stroke-linejoin:miter;stroke-opacity:1" />
      <path
         d="M 51.276143,118.01777 C 52.821618,104.11747 52.799366,91.961422 62.03638,80.128333 C 65.895076,75.495944 70.310979,71.388189 74.716918,67.291467 L 84.378291,63.339871 C 79.852607,67.414482 75.317433,71.508199 71.349726,76.144225 C 62.133513,87.597919 61.261214,99.512944 61.751882,113.67857 L 51.276143,118.01777 z "
         id="path1353"
         style="fill:url(#radialGradient3160);fill-opacity:1.0;fill-rule:nonzero;stroke:none;stroke-width:1px;stroke-linecap:butt;stroke-linejoin:miter;stroke-opacity:1" />
    </g>
    <path
       style="fill:none;fill-opacity:0.75;fill-rule:evenodd;stroke:#000000;stroke-width:1px;stroke-linecap:butt;stroke-linejoin:miter;stroke-opacity:1"
       d="M 160.71429,70.93361 C 165.43683,69.782116 171.78847,62.539375 177.85714,59.505039 C 183.73345,56.566884 192.90678,56.495112 199.28571,55.219324 C 208.69298,53.337872 219.64093,55.219324 229.28571,55.219324 C 229.81811,55.219324 230.2381,55.695515 230.71429,55.93361"
       id="path1359" />
    <path
       style="fill:none;fill-opacity:0.75;fill-rule:evenodd;stroke:#000000;stroke-width:1px;stroke-linecap:butt;stroke-linejoin:miter;stroke-opacity:1"
       d="M 175,70.93361 C 174.52381,71.171705 174.10382,71.647896 173.57143,71.647896 C 169.56905,71.647896 163.22198,71.647896 161.42857,71.647896 C 165.71428,71.647896 161.42857,63.076467 161.42857,58.790753 C 161.42857,58.454035 161.90476,58.314562 162.14286,58.076467"
       id="path1361" />
    <text
       xml:space="preserve"
       style="font-size:28.3907032px;font-style:normal;font-variant:normal;font-weight:normal;font-stretch:normal;text-align:start;line-height:125%;writing-mode:lr-tb;text-anchor:start;fill:#000000;fill-opacity:1;stroke:none;stroke-width:1px;stroke-linecap:butt;stroke-linejoin:miter;stroke-opacity:1;font-family:Comic Sans MS"
       x="288.7692"
       y="55.515316"
       id="text1365"
       sodipodi:linespacing="125%"
       transform="scale(0.817005,1.223983)"><tspan
         sodipodi:role="line"
         id="tspan1367"
         x="288.7692"
         y="55.515316">Müll</tspan></text>
    <path
       style="fill:none;fill-opacity:0.75;fill-rule:evenodd;stroke:#000000;stroke-width:1px;stroke-linecap:butt;stroke-linejoin:miter;stroke-opacity:1"
       d="M 80.714286,248.79075 C 74.134673,244.10477 72.616698,229.73138 70.714286,220.21932 C 68.346328,208.37954 76.404807,202.44536 79.285714,192.36218 C 80.430993,188.35371 84.808366,185.4458 88.571429,184.50504 C 91.485098,183.77662 95.736689,185.93361 99.285714,185.93361 C 101.03551,185.93361 101.39608,185.51154 102.85714,185.21932"
       id="path1377" />
    <path
       style="fill:none;fill-opacity:0.75;fill-rule:evenodd;stroke:#000000;stroke-width:1px;stroke-linecap:butt;stroke-linejoin:miter;stroke-opacity:1"
       d="M 77.857143,249.50504 C 81.703689,249.50504 80.422629,242.23121 82.142857,238.79076 C 83.854149,235.36817 84.285714,234.12917 84.285714,229.50504"
       id="path1379" />
    <path
       style="fill:none;fill-opacity:0.75;fill-rule:evenodd;stroke:#000000;stroke-width:1px;stroke-linecap:butt;stroke-linejoin:miter;stroke-opacity:1"
       d="M 63.571429,238.79075 C 65.35635,235.22091 71.43016,240.57726 75.000001,242.36218 C 78.02372,243.87404 77.651264,246.23614 79.285715,249.50504"
       id="path1381" />
    <text
       xml:space="preserve"
       style="font-size:24.10126305px;font-style:normal;font-variant:normal;font-weight:normal;font-stretch:normal;text-align:start;line-height:125%;writing-mode:lr-tb;text-anchor:start;fill:#000000;fill-opacity:1;stroke:none;stroke-width:1px;stroke-linecap:butt;stroke-linejoin:miter;stroke-opacity:1;font-family:Comic Sans MS"
       x="148.37202"
       y="146.83806"
       id="text1383"
       sodipodi:linespacing="125%"
       transform="scale(0.74951,1.334205)"><tspan
         sodipodi:role="line"
         id="tspan1385"
         x="148.37202"
         y="146.83806">Müllkontainer</tspan></text>
  </g>
</svg>
