<?xml version="1.0" encoding="UTF-8" standalone="no"?>
<!-- Created with Inkscape (http://www.inkscape.org/) -->
<svg
   xmlns:dc="http://purl.org/dc/elements/1.1/"
   xmlns:cc="http://web.resource.org/cc/"
   xmlns:rdf="http://www.w3.org/1999/02/22-rdf-syntax-ns#"
   xmlns:svg="http://www.w3.org/2000/svg"
   xmlns="http://www.w3.org/2000/svg"
   xmlns:sodipodi="http://inkscape.sourceforge.net/DTD/sodipodi-0.dtd"
   xmlns:inkscape="http://www.inkscape.org/namespaces/inkscape"
   width="210mm"
   height="297mm"
   id="svg2"
   sodipodi:version="0.32"
   inkscape:version="0.43"
   sodipodi:docbase="/home/az/Programmierung/WebSite/htdocs/projects/coding_for_dummies"
   sodipodi:docname="n_hoch_k.svg"
   inkscape:export-filename="/home/az/Programmierung/WebSite/htdocs/projects/coding_for_dummies/n_hoch_k.png"
   inkscape:export-xdpi="20.618452"
   inkscape:export-ydpi="20.618452">
  <defs
     id="defs4" />
  <sodipodi:namedview
     id="base"
     pagecolor="#ffffff"
     bordercolor="#666666"
     borderopacity="1.0"
     inkscape:pageopacity="0.0"
     inkscape:pageshadow="2"
     inkscape:zoom="0.98994949"
     inkscape:cx="370.0484"
     inkscape:cy="694.93041"
     inkscape:document-units="px"
     inkscape:current-layer="layer1"
     inkscape:window-width="1280"
     inkscape:window-height="949"
     inkscape:window-x="0"
     inkscape:window-y="25" />
  <metadata
     id="metadata7">
    <rdf:RDF>
      <cc:Work
         rdf:about="">
        <dc:format>image/svg+xml</dc:format>
        <dc:type
           rdf:resource="http://purl.org/dc/dcmitype/StillImage" />
      </cc:Work>
    </rdf:RDF>
  </metadata>
  <g
     inkscape:label="Ebene 1"
     inkscape:groupmode="layer"
     id="layer1">
    <g
       id="g3121"
       transform="translate(-18.18275,-3.030462)">
      <path
         d="M 65.706751,97.788018 C 65.384999,103.02162 66.0808,108.27362 66.958316,113.4257 C 67.75395,119.37216 68.923375,125.26085 70.188403,131.12246 C 71.404254,136.06702 72.882862,140.93584 74.157064,145.86362 C 75.233812,150.03033 76.101349,154.25734 76.690127,158.52109 C 57.575201,172.84138 61.874065,168.34995 55.19871,155.38731 C 53.508183,151.31378 53.257839,146.75996 52.700681,142.39926 C 52.271925,137.63236 52.69169,132.94159 53.36473,128.23155 C 53.993843,123.89737 54.577496,119.75971 56.560853,115.86082 C 63.197218,107.69412 72.791417,103.67478 82.85339,103.55759 C 87.491068,102.42844 92.278609,102.56412 97.015431,102.56299 C 102.70689,102.07427 107.56346,103.72917 112.2456,106.74862 C 116.11008,109.85128 118.01528,114.3379 119.73191,118.82644 C 120.68014,122.82384 121.47298,126.84621 122.05254,130.90995 C 122.28329,135.59028 122.89285,140.27022 123.73038,144.88366 C 124.28357,148.6027 124.20405,152.37417 124.20797,156.12348 L 108.14122,164.30789 C 108.14019,160.64551 108.23728,156.96567 107.79947,153.32255 C 106.95899,148.6637 106.30276,143.94355 106.03369,139.22341 C 105.55447,135.22868 104.72048,131.30405 103.83292,127.38306 C 102.35966,123.21713 100.61726,119.17565 97.005473,116.37164 C 92.363555,113.86148 87.816675,112.58907 82.428272,113.16201 C 77.676468,113.20105 72.966757,113.42023 68.272761,114.16887 C 49.886644,115.05999 83.711362,104.39054 73.225586,108.79279 C 70.787136,112.26019 70.09857,115.90694 69.506038,120.1979 C 68.990752,124.834 68.223428,129.39736 68.72329,134.09396 C 69.17447,138.22684 69.5196,142.49176 70.831376,146.42043 C 77.617484,160.11988 78.55531,156.83886 60.339858,166.46793 C 60.146781,162.63069 59.417715,158.28531 58.265717,154.3737 C 57.06224,149.44988 55.526717,144.62103 54.395597,139.67615 C 53.111412,133.78094 51.886246,127.86639 51.067529,121.88431 C 50.145456,116.66789 49.653583,111.36212 49.45064,106.07092 L 65.706751,97.788018 z "
         id="path1307"
         style="fill:#77b700;fill-opacity:1;fill-rule:nonzero;stroke:none;stroke-width:1px;stroke-linecap:butt;stroke-linejoin:miter;stroke-opacity:1" />
      <path
         d="M 302.08245,106.87939 C 301.88076,110.79005 301.98991,114.70615 302.20524,118.59996 C 303.43829,122.9298 304.38047,127.33178 304.88739,131.81615 C 305.93283,136.46237 305.82761,141.2233 306.58168,145.90313 C 311.87315,155.99426 294.9969,167.47195 289.82937,156.08558 C 287.68625,151.46519 287.92164,146.40367 287.92758,141.43506 C 287.37352,136.53014 288.57835,132.45454 290.63627,128.10712 C 296.28944,118.92902 307.69314,114.02218 318.20547,113.66245 C 323.25916,113.22737 327.40423,113.8429 331.58156,116.56855 C 335.79452,119.60258 337.99304,123.82544 339.81013,128.54476 C 341.35318,133.11306 341.99013,137.94431 342.43353,142.73009 C 342.83148,145.08344 343.39243,147.3908 343.97119,149.69848 L 328.17075,158.43611 C 327.51118,156.04261 326.8909,153.65404 326.4838,151.19581 C 326.05132,146.52376 325.47407,141.79933 324.06918,137.30546 C 322.38928,132.85926 320.37891,128.98238 316.31819,126.23758 C 312.25309,124.285 308.28396,123.81735 303.65329,124.30749 C 284.35973,126.45123 318.45809,114.19369 307.0992,120.66849 C 305.09542,124.82749 303.29696,128.42968 303.9961,133.25415 C 303.9856,137.95781 303.59737,142.81326 305.50601,147.22759 C 310.1749,157.17284 289.93157,167.84104 290.64129,154.32522 C 289.86086,149.59575 289.96867,144.80408 288.87928,140.11471 C 288.3968,135.67817 287.56885,131.31431 286.2788,127.04385 C 285.83612,123.0998 285.92152,119.14088 285.82634,115.16229 L 302.08245,106.87939 z "
         id="path1319"
         style="fill:#77b700;fill-opacity:1;fill-rule:nonzero;stroke:none;stroke-width:1px;stroke-linecap:butt;stroke-linejoin:miter;stroke-opacity:1" />
      <path
         d="M 408.13554,107.00681 C 407.93183,112.41925 409.54059,117.58225 411.1638,122.67521 C 412.52333,128.69049 413.01216,134.80428 413.10894,140.95411 C 413.46079,154.91366 413.95976,150.9715 396.99655,158.61948 C 397.41729,153.86943 396.65795,149.22264 396.17048,144.52461 C 395.7799,139.54675 395.5875,135.05584 398.164,130.73066 C 403.02046,125.65881 412.10258,122.2236 416.5269,119.3355 C 421.275,116.23605 406.71363,125.01922 401.79404,127.83855 C 394.18021,132.2019 416.75337,117.91891 425.32279,116.02833 C 430.76501,115.6793 436.32345,115.18353 441.6292,116.48653 C 446.75984,119.1766 449.0515,123.31827 450.73088,128.62851 C 452.02629,133.34659 452.44153,138.11862 452.50774,142.98757 C 452.51187,145.68255 452.50525,148.37755 452.50181,151.07254 L 436.43523,159.25728 C 436.43779,156.56483 436.44232,153.87238 436.44506,151.17993 C 436.39443,146.4546 436.16045,141.81401 434.8918,137.23048 C 433.39983,132.44683 431.62848,128.75914 426.75969,126.66582 C 421.53013,126.16266 416.18885,125.99953 410.96537,126.88815 C 389.68085,133.53683 451.1081,103.02116 402.48723,130.69314 C 398.39444,133.0225 418.70482,121.13536 414.80621,123.77689 C 411.77727,127.6421 411.69878,131.2511 412.17885,136.22955 C 412.64738,140.95505 413.40047,145.61696 413.14565,150.39099 C 392.87814,161.90305 397.37341,163.14576 397.05429,149.14141 C 397.03802,143.12477 396.75789,137.14279 395.36441,131.2596 C 393.70241,126.04237 392.25036,120.7686 391.90527,115.27654 L 408.13554,107.00681 z "
         id="path1323"
         style="fill:#77b700;fill-opacity:1;fill-rule:nonzero;stroke:none;stroke-width:1px;stroke-linecap:butt;stroke-linejoin:miter;stroke-opacity:1" />
      <path
         d="M 608.15867,117.99107 C 609.17261,122.25362 612.35665,125.9303 614.8616,129.53601 C 617.88331,134.29443 619.47818,139.57719 620.69785,145.01304 C 624.49111,154.40666 613.06754,173.21733 603.04966,163.00737 C 600.13374,158.6112 598.11473,153.64759 596.07443,148.78631 C 594.6267,144.22457 594.62438,140.10388 596.9128,135.97821 C 606.6313,125.94753 614.14675,125.52355 625.2151,123.19136 C 630.12996,122.07769 634.83064,121.37423 639.76236,122.54143 C 644.57179,125.55314 647.57078,130.67665 650.37316,135.50698 C 652.88654,139.74619 655.84325,143.73123 658.39044,147.94818 C 660.55239,152.45045 660.58096,157.30637 660.6063,162.18206 L 644.53996,170.36677 C 644.52549,165.76149 644.70225,161.14715 642.7108,156.86374 C 640.12715,152.71482 637.27428,148.69741 634.78264,144.49058 C 632.21243,140.04146 629.53398,135.14731 624.88719,132.72316 C 620.10274,132.40381 615.53349,132.94152 610.82659,134.05025 C 595.78336,136.38105 601.7941,137.07076 613.60898,128.98486 C 610.83114,132.44412 610.56332,135.59662 611.83067,140.05248 C 613.74941,144.67454 615.62135,149.43267 618.43206,153.57423 C 608.78711,160.25931 604.38317,169.12815 604.79916,153.44992 C 603.67308,148.23525 602.23467,143.14085 599.35137,138.57282 C 596.60111,134.68707 593.43176,130.79405 591.90256,126.27397 L 608.15867,117.99107 z "
         id="path1335"
         style="fill:#77b700;fill-opacity:1;fill-rule:nonzero;stroke:none;stroke-width:1px;stroke-linecap:butt;stroke-linejoin:miter;stroke-opacity:1" />
    </g>
    <g
       id="g3127"
       style="fill:#0000c3;fill-opacity:1"
       transform="translate(-18.18275,-3.030462)">
      <path
         d="M 139.44789,28.087492 C 140.78705,32.881545 142.00029,38.238634 142.89719,43.3285 C 143.59893,49.574244 145.48557,55.490836 147.24269,61.480534 C 148.58341,66.988273 149.38742,72.597973 150.32254,78.18276 C 151.59781,82.849885 151.4805,87.692007 151.48312,92.484105 C 151.47981,94.167532 151.47857,95.850963 151.47642,97.534391 L 135.40983,105.7191 C 135.41146,104.03537 135.41237,102.35164 135.41604,100.6679 C 135.41691,95.999451 135.63347,91.260655 134.44069,86.703006 C 133.5053,81.163062 132.76937,75.587094 131.46451,70.11319 C 129.65012,64.066319 127.82744,58.067157 127.14201,51.749113 C 126.14985,46.553954 125.16697,41.282371 123.19178,36.370395 L 139.44789,28.087492 z "
         id="path1309"
         style="fill:#0000c3;fill-opacity:1;fill-rule:nonzero;stroke:none;stroke-width:1px;stroke-linecap:butt;stroke-linejoin:miter;stroke-opacity:1" />
      <path
         d="M 135.31361,80.575443 C 136.91468,69.979053 149.46839,66.257067 158.70535,62.837718 C 164.13715,61.643561 169.42049,60.34628 174.5383,58.159563 C 193.29015,47.862609 129.6622,84.713591 180.29446,55.079233 C 185.17274,52.224044 170.52009,60.759359 165.60808,63.556135 C 164.10602,64.411377 168.2898,61.371873 169.56805,60.208381 C 171.48806,57.878013 172.59539,55.12415 173.70619,52.362117 L 190.12326,44.78355 C 189.07686,47.626569 187.98882,50.522288 186.15256,52.962053 C 180.7322,59.865351 175.52863,59.818851 166.27343,66.431109 C 161.70586,69.694353 185.79928,55.348289 180.85243,58.001625 C 173.98907,61.682918 167.57454,66.21886 160.41309,69.319716 C 155.24613,71.354392 149.82731,72.321002 144.5018,73.862734 C 134.08535,78.784765 162.4341,58.76938 151.56972,72.292541 L 135.31361,80.575443 z "
         id="path1311"
         style="fill:#0000c3;fill-opacity:1;fill-rule:nonzero;stroke:none;stroke-width:1px;stroke-linecap:butt;stroke-linejoin:miter;stroke-opacity:1" />
      <path
         d="M 161.04414,63.111632 C 165.11021,63.02506 168.4087,65.276505 171.80969,67.236055 C 176.35893,69.637164 179.00405,73.962813 182.08943,77.889213 C 185.31819,81.42106 187.43213,85.678911 188.83906,90.21524 C 189.51631,92.247055 189.61295,94.373515 189.79979,96.4838 L 173.77315,104.74524 C 173.61311,102.77469 173.64338,100.77438 173.03113,98.865444 C 171.72199,94.496913 169.70109,90.50211 166.56996,87.125505 C 163.68289,83.281438 161.1037,79.256338 156.6556,77.040643 C 153.3055,75.1917 150.27025,73.315581 146.2839,73.835574 L 161.04414,63.111632 z "
         id="path1313"
         style="fill:#0000c3;fill-opacity:1;fill-rule:nonzero;stroke:none;stroke-width:1px;stroke-linecap:butt;stroke-linejoin:miter;stroke-opacity:1" />
      <path
         d="M 405.11801,252.34136 C 404.80114,256.28128 405.08448,260.13106 405.77325,264.00454 C 407.17441,268.66826 407.04986,273.5381 407.05259,278.35249 C 407.01882,283.12745 407.26302,287.90078 406.59823,292.62435 C 405.27005,296.12856 403.66284,299.50553 402.20366,302.95774 C 401.32643,305.29655 400.29848,307.57084 399.25068,309.84072 L 382.79663,317.30993 C 383.82663,315.04304 385.08592,312.86091 385.73313,310.44409 C 387.23427,307.05019 388.6716,303.66536 390.26559,300.30649 C 391.13882,295.80574 391.07907,291.18974 390.98538,286.53602 C 390.98663,281.86064 391.22224,277.10483 389.91238,272.5632 C 389.14898,268.59655 388.73181,264.6805 388.86189,260.62426 L 405.11801,252.34136 z "
         id="path1341"
         style="fill:#0000c3;fill-opacity:1;fill-rule:nonzero;stroke:none;stroke-width:1px;stroke-linecap:butt;stroke-linejoin:miter;stroke-opacity:1" />
      <path
         d="M 406.51121,291.40611 C 409.78054,289.45862 414.32842,288.09481 418.06733,286.30208 C 423.56418,283.4586 431.14491,279.08722 406.52927,293.04998 C 405.50098,293.63326 408.50739,291.75281 409.52881,291.15758 C 415.1162,287.90153 420.72505,284.68248 426.32314,281.44488 C 426.96461,281.0739 408.32526,295.13124 419.68099,284.07754 C 419.85078,283.81518 420.02057,283.55282 420.19035,283.29046 L 436.6282,275.88051 C 436.48808,276.21735 436.34797,276.55418 436.20785,276.89101 C 430.48724,284.4853 404.22669,297.44903 412.445,292.66803 C 442.79701,275.01073 413.11882,292.68425 404.03863,297.52916 C 400.09608,299.27579 395.75997,301.08467 391.75097,302.13005 L 406.51121,291.40611 z "
         id="path1343"
         style="fill:#0000c3;fill-opacity:1;fill-rule:nonzero;stroke:none;stroke-width:1px;stroke-linecap:butt;stroke-linejoin:miter;stroke-opacity:1" />
      <path
         d="M 416.61273,286.35534 C 420.64005,287.82907 423.01545,291.58297 425.07905,295.26218 C 426.10484,299.84177 427.24659,304.37176 428.70368,308.85308 L 412.81807,317.44636 C 411.43586,313.05823 410.18859,308.6427 409.38194,304.12153 C 407.52255,300.98618 405.7368,297.3942 401.85249,297.07929 L 416.61273,286.35534 z "
         id="path1345"
         style="fill:#0000c3;fill-opacity:1;fill-rule:nonzero;stroke:none;stroke-width:1px;stroke-linecap:butt;stroke-linejoin:miter;stroke-opacity:1" />
    </g>
    <g
       id="g4008"
       style="fill:#000000;fill-opacity:0.79264209"
       transform="translate(-18.18275,-3.030462)">
      <path
         d="M 231.75482,114.62941 C 235.7127,114.67395 239.64305,114.59152 243.55277,115.10045 C 248.28234,115.56687 252.96142,116.03303 257.67834,116.60298 C 260.01698,116.74177 262.36062,116.71099 264.70203,116.72107 L 250.11211,127.31631 C 247.73807,127.29192 245.35916,127.30469 242.99395,127.06512 C 238.26277,126.40965 233.52291,126.16228 228.79875,125.45757 C 224.87452,125.29318 220.93152,125.21233 216.99458,125.35335 L 231.75482,114.62941 z "
         id="path1315"
         style="fill:#000000;fill-opacity:0.79264209;fill-rule:nonzero;stroke:none;stroke-width:1px;stroke-linecap:butt;stroke-linejoin:miter;stroke-opacity:1" />
      <path
         d="M 226.81316,140.9019 C 232.60766,141.00892 238.40543,141.00609 244.20111,140.99175 C 249.69327,140.97829 255.18537,140.95808 260.67757,140.95587 C 262.02031,140.95578 263.36305,140.95592 264.70579,140.95594 L 250.11778,151.55475 C 248.77497,151.55478 247.43217,151.55492 246.08937,151.55482 C 240.63009,151.55263 235.1709,151.53246 229.71166,151.51895 C 223.8335,151.5043 217.95344,151.50372 212.07638,151.6088 L 226.81316,140.9019 z "
         id="path1317"
         style="fill:#000000;fill-opacity:0.79264209;fill-rule:nonzero;stroke:none;stroke-width:1px;stroke-linecap:butt;stroke-linejoin:miter;stroke-opacity:1" />
      <path
         d="M 375.82358,130.1129 C 376.80113,131.94897 364.24926,139.09943 357.37059,137.48828 L 372.13367,127.08907 C 384.57341,132.04064 364.77582,145.67307 359.56747,138.3958 L 375.82358,130.1129 z "
         id="path1321"
         style="fill:#000000;fill-opacity:0.79264209;fill-rule:nonzero;stroke:none;stroke-width:1px;stroke-linecap:butt;stroke-linejoin:miter;stroke-opacity:1" />
      <path
         d="M 485.30311,128.77155 C 498.07944,133.99018 480.22036,139.19647 472.74015,142.99788 C 471.03631,142.24317 470.16307,140.65648 469.0504,139.30297 L 484.76338,130.29008 C 485.56398,131.0468 486.04764,132.56077 487.44436,132.39876 C 469.05587,143.04622 479.14938,141.77877 470.54287,139.49549 L 485.30311,128.77155 z "
         id="path1325"
         style="fill:#000000;fill-opacity:0.79264209;fill-rule:nonzero;stroke:none;stroke-width:1px;stroke-linecap:butt;stroke-linejoin:miter;stroke-opacity:1" />
      <path
         d="M 510.55692,152.00506 C 512.11406,152.06413 513.67294,152.0522 515.2309,152.06318 L 500.63065,162.67088 C 499.01934,162.68201 497.40725,162.67155 495.79668,162.729 L 510.55692,152.00506 z "
         id="path1327"
         style="fill:#000000;fill-opacity:0.79264209;fill-rule:nonzero;stroke:none;stroke-width:1px;stroke-linecap:butt;stroke-linejoin:miter;stroke-opacity:1" />
      <path
         d="M 533.1731,153.73475 C 534.00042,153.79231 534.85014,153.8962 535.68414,153.97649 L 520.9415,164.43204 C 519.86609,164.05215 518.44594,164.26736 517.62721,163.26128 L 533.1731,153.73475 z "
         id="path1329"
         style="fill:#000000;fill-opacity:0.79264209;fill-rule:nonzero;stroke:none;stroke-width:1px;stroke-linecap:butt;stroke-linejoin:miter;stroke-opacity:1" />
      <path
         d="M 552.98333,157.05582 C 553.93064,157.10144 554.87949,157.08903 555.82743,157.10563 L 541.20431,167.72995 C 540.21065,167.74655 539.2162,167.73561 538.22309,167.77976 L 552.98333,157.05582 z "
         id="path1331"
         style="fill:#000000;fill-opacity:0.79264209;fill-rule:nonzero;stroke:none;stroke-width:1px;stroke-linecap:butt;stroke-linejoin:miter;stroke-opacity:1" />
      <path
         d="M 568.13561,126.75124 C 572.92281,126.39009 575.48547,129.56867 578.34196,132.94181 L 562.78374,142.0729 C 559.97214,138.91525 557.87368,136.78191 553.37537,137.47518 L 568.13561,126.75124 z "
         id="path1337"
         style="fill:#000000;fill-opacity:0.79264209;fill-rule:nonzero;stroke:none;stroke-width:1px;stroke-linecap:butt;stroke-linejoin:miter;stroke-opacity:1" />
      <path
         d="M 264.23008,174.85083 C 287.82667,160.6353 278.38479,163.63204 276.81572,174.38424 C 276.05523,179.50667 277.92233,182.21109 281.32082,185.74688 C 287.71794,190.8633 295.05299,194.45619 302.94765,196.53332 C 310.51599,198.14123 318.26751,198.3587 325.94511,199.12614 C 335.16295,199.81863 344.41655,199.56913 353.65257,199.64689 C 364.43702,199.73933 375.1207,198.6311 385.90842,198.64636 C 395.35518,198.9089 404.85234,198.06283 414.27133,198.95321 C 424.25381,200.87926 434.50347,199.87018 444.52916,200.97134 C 449.83738,201.17802 454.86739,202.70896 459.92852,204.12184 C 464.61162,205.86939 467.72833,209.58989 471.06884,213.14518 C 475.04078,216.89322 474.75944,221.77867 474.75085,226.83078 C 478.44579,235.70229 460.10282,249.02025 458.04299,237.68369 C 455.80174,232.04669 455.66248,228.43608 459.37802,223.61517 C 466.95033,216.15239 476.89756,211.80552 486.04008,206.68402 C 491.36364,204.71172 497.02199,204.6833 502.57967,203.89337 C 508.98586,203.12683 515.36258,203.94663 521.66514,205.09076 C 528.90505,206.34015 536.08299,207.92785 543.29656,209.32485 C 551.05273,211.00776 559.00383,211.86095 566.913,212.51093 C 576.83316,213.83954 586.78007,214.93015 596.7054,216.21797 C 604.89189,217.87001 613.23532,217.83234 621.55354,217.77029 C 628.85555,217.53425 636.21452,218.25453 643.48029,217.40765 C 649.55633,217.29194 655.04007,215.85351 660.43654,213.1871 C 667.85837,209.69932 642.47879,223.84816 646.88878,221.052 C 652.17627,217.69944 657.74211,214.80737 663.15288,211.65764 C 668.03862,208.81354 653.37677,217.33821 648.46385,220.13511 C 646.00288,221.53613 652.67902,216.33365 654.55011,214.20803 C 657.89717,211.42957 660.93336,208.45845 663.56562,205.00127 C 664.91368,202.62213 664.61394,200.05296 664.5284,197.46143 L 680.46561,188.94875 C 680.69884,191.86349 681.09331,194.76149 680.06193,197.62421 C 677.70141,201.37683 674.8543,204.64565 671.25205,207.32224 C 663.89512,215.09821 660.56125,214.81629 649.12991,223.00833 C 644.56605,226.27893 668.67468,211.95001 663.71364,214.57942 C 657.8407,217.69215 652.3734,221.55727 646.37522,224.42848 C 640.82952,226.80847 635.17077,227.8534 629.11927,228.07082 C 621.78049,228.54355 614.40196,228.17127 607.0492,228.30728 C 598.71376,228.20726 590.36447,228.19756 582.16409,226.49811 C 572.26602,225.13248 562.33168,224.02324 552.40636,222.88017 C 544.42955,222.10458 536.41676,221.26811 528.56645,219.62955 C 521.399,218.0538 514.20985,216.5486 506.96303,215.3807 C 500.7324,214.34683 494.46329,213.68284 488.16599,214.65017 C 482.67699,215.41111 477.07348,215.47954 471.9362,217.84117 C 473.33382,217.01436 491.23473,205.49616 476.00976,216.75529 C 471.97741,220.91539 471.5778,223.56903 473.87897,229.04701 C 476.54764,239.2188 454.43022,248.64451 458.6802,235.00763 C 458.69339,230.40182 459.28886,225.8854 455.68781,222.42157 C 452.53463,219.13882 449.54664,215.72483 445.06209,214.34245 C 440.08819,212.94441 435.12822,211.56573 429.92229,211.33689 C 419.89449,210.5649 409.77887,210.7609 399.7932,209.29006 C 390.42594,208.77442 381.0145,209.19985 371.63638,209.02528 C 360.85707,209.17461 350.122,210.20442 339.33548,210.05009 C 330.04178,210.13749 320.72534,210.21231 311.45572,209.44862 C 303.67859,208.72095 295.79194,208.57931 288.17498,206.68943 C 280.19588,204.20858 272.60359,200.40521 266.02948,195.20871 C 262.36463,191.35152 259.95497,188.08333 260.69466,182.48557 C 261.68146,170.68963 265.36768,170.41449 278.99032,164.12689 L 264.23008,174.85083 z "
         id="path1339"
         style="fill:#000000;fill-opacity:0.79264209;fill-rule:nonzero;stroke:none;stroke-width:1px;stroke-linecap:butt;stroke-linejoin:miter;stroke-opacity:1" />
      <path
         d="M 456.00868,290.39596 C 459.17843,289.31308 463.89755,288.93599 467.6724,288.547 C 472.6705,287.90733 477.24016,288.73942 482.00575,290.05083 C 483.30386,290.35488 484.64381,290.30344 485.95974,290.42946 L 471.30127,300.9287 C 469.92171,300.74825 468.51915,300.6932 467.17427,300.29268 C 462.55757,298.94286 457.98515,298.71346 453.18685,299.28007 C 449.22571,299.85755 445.01169,300.30997 441.24844,301.1199 L 456.00868,290.39596 z "
         id="path1347"
         style="fill:#000000;fill-opacity:0.79264209;fill-rule:nonzero;stroke:none;stroke-width:1px;stroke-linecap:butt;stroke-linejoin:miter;stroke-opacity:1" />
      <path
         d="M 510.55692,264.13199 C 514.12588,268.60328 513.95187,274.18734 514.03371,279.65886 C 514.08471,287.13351 514.28248,294.60261 513.51882,302.04311 C 510.81662,313.50641 495.39959,321.90837 499.31669,304.32213 C 500.91687,297.03995 501.86629,289.56123 505.53872,283.02138 C 513.13236,274.59927 523.49514,271.66695 533.63559,268.51589 C 539.90207,269.3922 541.55212,275.12975 543.22782,280.54241 C 544.71208,285.73196 544.43357,291.18406 544.43114,296.52833 C 545.55146,310.02756 540.96512,308.15112 528.34541,313.43872 C 528.58634,307.12342 530.28567,300.98103 531.48065,294.79956 C 532.63346,289.57463 535.07406,285.09836 538.31026,280.98365 C 549.88782,272.94962 555.81914,269.23908 567.88604,272.48798 C 572.78982,273.71829 574.95686,277.08704 577.05014,281.31271 C 578.1332,285.99002 578.65839,290.71974 578.76811,295.51473 C 578.57654,300.05718 578.64097,304.38222 579.98368,308.68589 C 582.47994,312.71453 586.61345,312.61485 590.95204,312.71015 C 607.31703,305.38317 574.30665,326.03384 585.14606,316.16588 C 585.96148,315.49743 586.11004,314.41387 586.58232,313.55551 L 602.96652,305.94917 C 602.57053,306.97993 602.3962,308.09465 601.78199,309.03248 C 595.63569,316.49385 586.08846,322.23201 576.34632,323.2761 C 571.45588,322.97792 566.88942,322.32405 564.29942,317.67526 C 562.78026,313.09474 562.35301,308.59682 562.71001,303.71554 C 562.62126,299.08601 562.2354,294.54114 561.23412,290.01274 C 559.35179,286.23014 557.46618,283.5825 553.01307,282.6635 C 542.70115,280.38307 529.015,287.72536 555.11506,274.39864 C 551.22274,277.64133 549.05846,281.9786 547.72003,286.99978 C 546.42096,293.02358 544.71055,299.07476 544.43647,305.23995 C 527.38244,315.47326 528.09013,319.24443 528.36704,304.70817 C 528.39001,299.52215 528.72197,294.23799 527.46335,289.16457 C 526.08496,284.66655 524.93836,278.8913 519.28767,279.47193 C 500.78854,285.20078 521.79272,278.31419 522.14926,275.86183 C 517.6854,281.845 516.83508,289.41333 515.33985,296.61283 C 513.51583,305.16079 497.26976,326.29493 497.43717,310.01226 C 498.34258,302.62474 498.16653,295.22055 498.13881,287.78255 C 498.056,283.6763 497.98723,276.98529 495.79668,274.85593 L 510.55692,264.13199 z "
         id="path1351"
         style="fill:#000000;fill-opacity:0.79264209;fill-rule:nonzero;stroke:none;stroke-width:1px;stroke-linecap:butt;stroke-linejoin:miter;stroke-opacity:1" />
      <path
         d="M 619.80378,280.91685 C 615.90025,280.82578 611.99422,280.85387 608.08969,280.85366 C 590.63319,285.83883 620.9345,265.4483 613.55551,277.46647 C 611.74567,281.15977 609.65085,284.70199 607.90467,288.41867 C 606.51436,292.66251 606.92179,296.58907 608.58508,300.61105 C 610.51388,303.96963 613.0136,306.65642 615.89758,309.04903 C 619.25763,310.85499 622.72982,312.14741 626.5096,312.63252 C 641.56243,307.97055 608.50591,327.33991 622.06905,315.73248 C 625.78096,312.96201 626.13849,309.22498 626.90838,304.96829 C 627.53051,300.32452 627.36257,295.6173 627.35647,290.94225 C 627.38874,286.41651 627.47462,281.90451 626.96254,277.4247 C 620.20547,271.86905 640.39627,259.06979 639.37378,271.22638 C 639.75693,276.1744 640.52107,281.06774 641.47893,285.92645 C 642.06701,290.30293 643.09448,294.39057 644.83745,298.44915 C 647.12989,301.33411 648.66134,304.44547 649.94978,307.88145 C 650.79481,311.85638 652.77927,313.09247 656.09521,314.54422 L 641.22909,324.82025 C 637.51896,322.90948 635.14157,320.80276 634.06169,316.50065 C 632.82809,313.17096 631.29842,310.23881 629.13194,307.39592 C 627.37367,303.24247 626.08056,299.06701 625.61476,294.56414 C 624.61232,289.5367 623.88975,284.49198 623.28933,279.38731 C 623.54593,269.67435 638.81716,257.23619 642.89441,268.90269 C 643.53602,273.49179 643.49427,278.10026 643.42143,282.75438 C 643.42759,287.51431 643.57029,292.29423 643.10013,297.0364 C 642.32556,301.38652 642.27493,305.75268 638.82153,308.92024 C 631.44144,315.74073 622.27703,323.97139 611.80692,323.10551 C 607.9594,322.23419 604.21106,320.9371 600.77378,318.92304 C 597.60816,316.25199 595.02033,313.13249 592.89146,309.51641 C 591.00489,305.08151 590.40694,300.84179 591.50576,296.04064 C 593.07519,292.14855 595.32887,288.6727 597.0705,284.83434 C 602.01307,275.74767 612.32914,269.67466 622.67599,270.25609 C 626.63853,270.25588 630.60239,270.28253 634.56402,270.1929 L 619.80378,280.91685 z "
         id="path1353"
         style="fill:#000000;fill-opacity:0.79264209;fill-rule:nonzero;stroke:none;stroke-width:1px;stroke-linecap:butt;stroke-linejoin:miter;stroke-opacity:1" />
      <path
         d="M 656.01889,312.61931 C 659.6365,312.82463 663.12567,313.51254 666.77642,313.68077 C 671.83477,314.06922 676.4765,313.67045 681.18119,311.98386 C 655.11569,329.52013 671.60099,317.11365 676.62709,308.26129 C 679.31183,303.43653 680.56504,298.20431 681.58889,292.84451 C 682.61759,287.79771 683.35409,282.69865 684.43685,277.66077 C 685.50587,272.66724 684.71283,268.59985 682.23421,264.24585 C 679.40184,260.00065 675.36338,257.34323 671.14303,254.71099 C 660.98599,251.12431 652.14807,260.04861 675.95226,246.45994 C 674.3285,250.00585 674.05794,254.25832 673.76433,258.19603 C 673.54551,263.21482 673.60874,268.15883 674.47338,273.10338 C 675.87269,277.60435 678.14054,281.84043 680.31947,286.01807 C 682.85185,290.66195 685.6176,295.1213 688.80939,299.32227 C 691.52214,302.98986 694.5823,306.4081 697.69477,309.74007 C 699.75682,311.47161 701.93042,313.01771 704.20401,314.45726 L 688.98916,324.21458 C 686.65552,322.682 684.3791,321.07322 682.29627,319.2051 C 679.19731,315.74329 676.08982,312.26362 673.29886,308.55399 C 670.09083,304.27775 667.35456,299.7069 664.7477,295.03649 C 662.45211,290.71327 660.09144,286.33012 658.61293,281.65606 C 657.66587,276.57941 657.43988,271.51464 657.66862,266.33832 C 657.86401,262.02323 658.45771,257.79159 659.30951,253.57599 C 669.81434,247.0307 675.41582,239.54206 686.32976,244.92735 C 690.70472,247.75953 694.81727,250.7437 697.78451,255.14437 C 700.45156,259.84685 701.69347,264.32192 700.64084,269.76372 C 699.61538,274.79212 698.77388,279.85037 697.75999,284.87585 C 696.87541,290.44237 695.55796,295.83353 693.00332,300.90587 C 686.88849,312.44574 680.19398,317.35677 667.037,323.18888 C 662.12828,324.3207 657.20923,324.55403 652.14968,324.23536 C 648.50071,323.93816 644.92798,323.12189 641.25865,323.34325 L 656.01889,312.61931 z "
         id="path1355"
         style="fill:#000000;fill-opacity:0.79264209;fill-rule:nonzero;stroke:none;stroke-width:1px;stroke-linecap:butt;stroke-linejoin:miter;stroke-opacity:1" />
    </g>
  </g>
</svg>
