<?xml version="1.0" encoding="UTF-8" standalone="no"?>
<!-- Created with Inkscape (http://www.inkscape.org/) -->
<svg
   xmlns:dc="http://purl.org/dc/elements/1.1/"
   xmlns:cc="http://web.resource.org/cc/"
   xmlns:rdf="http://www.w3.org/1999/02/22-rdf-syntax-ns#"
   xmlns:svg="http://www.w3.org/2000/svg"
   xmlns="http://www.w3.org/2000/svg"
   xmlns:sodipodi="http://inkscape.sourceforge.net/DTD/sodipodi-0.dtd"
   xmlns:inkscape="http://www.inkscape.org/namespaces/inkscape"
   width="210mm"
   height="297mm"
   id="svg2"
   sodipodi:version="0.32"
   inkscape:version="0.43"
   sodipodi:docbase="/home/az/Programmierung/WebSite/htdocs/projects/coding_for_dummies"
   sodipodi:docname="speicherfelder.svg">
  <defs
     id="defs4" />
  <sodipodi:namedview
     id="base"
     pagecolor="#ffffff"
     bordercolor="#666666"
     borderopacity="1.0"
     inkscape:pageopacity="0.0"
     inkscape:pageshadow="2"
     inkscape:zoom="1.4"
     inkscape:cx="329.73352"
     inkscape:cy="915.53625"
     inkscape:document-units="px"
     inkscape:current-layer="layer1"
     inkscape:window-width="1280"
     inkscape:window-height="949"
     inkscape:window-x="0"
     inkscape:window-y="25" />
  <metadata
     id="metadata7">
    <rdf:RDF>
      <cc:Work
         rdf:about="">
        <dc:format>image/svg+xml</dc:format>
        <dc:type
           rdf:resource="http://purl.org/dc/dcmitype/StillImage" />
      </cc:Work>
    </rdf:RDF>
  </metadata>
  <g
     inkscape:label="Ebene 1"
     inkscape:groupmode="layer"
     id="layer1">
    <flowRoot
       xml:space="preserve"
       id="flowRoot1307"
       transform="matrix(1.378631,0,0,2.885125,-7.055695,-27.66151)"><flowRegion
         id="flowRegion1309"><rect
           id="rect1311"
           width="286.42856"
           height="87.85714"
           x="17.857143"
           y="15.219324" /></flowRegion><flowPara
         id="flowPara1315">Speicherfeld1</flowPara></flowRoot>    <text
       xml:space="preserve"
       style="font-size:23.93246078px;font-style:normal;font-weight:normal;fill:#000000;fill-opacity:1;stroke:none;stroke-width:1px;stroke-linecap:butt;stroke-linejoin:miter;stroke-opacity:1;font-family:Bitstream Vera Sans"
       x="312.42325"
       y="28.326309"
       id="text1319"
       transform="scale(0.69126,1.446633)"><tspan
         sodipodi:role="line"
         id="tspan1321"
         x="312.42325"
         y="28.326309">Speicherfeld2</tspan></text>
    <text
       xml:space="preserve"
       style="font-size:23.93245506px;font-style:normal;font-weight:normal;fill:#000000;fill-opacity:1;stroke:none;stroke-width:1px;stroke-linecap:butt;stroke-linejoin:miter;stroke-opacity:1;font-family:Bitstream Vera Sans"
       x="246.66949"
       y="115.40063"
       id="text1323"
       transform="scale(0.69126,1.446633)"><tspan
         sodipodi:role="line"
         id="tspan1325"
         x="246.66949"
         y="115.40063">Speicherfeld3</tspan></text>
    <g
       id="g4023"
       style="fill:#a1f6f7;fill-opacity:1">
      <rect
         y="57.362183"
         x="16.42857"
         height="83.571426"
         width="117.14286"
         id="rect1327"
         style="fill:#a1f6f7;fill-opacity:1;fill-rule:evenodd;stroke:#000000;stroke-width:1px;stroke-linecap:butt;stroke-linejoin:miter;stroke-opacity:1" />
      <rect
         y="50.933609"
         x="208.57144"
         height="63.57143"
         width="126.42857"
         id="rect1329"
         style="fill:#a1f6f7;fill-opacity:1;fill-rule:evenodd;stroke:#000000;stroke-width:1px;stroke-linecap:butt;stroke-linejoin:miter;stroke-opacity:1" />
      <rect
         y="177.36218"
         x="140"
         height="59.285713"
         width="311.42856"
         id="rect1331"
         style="fill:#a1f6f7;fill-opacity:1;fill-rule:evenodd;stroke:#000000;stroke-width:1px;stroke-linecap:butt;stroke-linejoin:miter;stroke-opacity:1" />
    </g>
    <g
       id="g4004">
      <path
         d="M 47.170175,97.142124 C 49.679128,94.172089 34.045822,105.19473 37.105991,102.83108 C 40.510826,100.20121 44.446824,98.384943 48.179055,96.27441 C 51.646419,94.313656 41.338883,100.36737 37.900759,102.38164 C 36.023228,103.48162 41.309316,99.648893 42.952374,98.206789 C 49.979262,92.915627 57.418103,88.112501 65.306136,84.294374 C 76.700887,79.026376 70.764559,82.906151 63.306423,88.695247 C 80.861232,77.475136 72.502118,82.068353 69.688001,88.557365 C 69.05086,91.395676 68.663246,94.319967 68.443309,97.232827 C 68.632373,100.41013 68.112657,103.49462 67.729598,106.6262 C 67.167628,110.0476 66.604702,113.47872 66.365911,116.94111 C 66.416804,118.00332 66.243028,119.04999 66.163083,120.10161 L 55.01532,125.70179 C 55.135248,124.69045 55.404224,123.70628 55.297856,122.67156 C 55.472132,119.15195 55.999942,115.69 56.56063,112.21878 C 56.921218,109.13823 57.592529,106.12343 57.354094,102.98885 C 57.494476,99.932704 57.980041,96.974783 58.401728,93.957166 C 61.309313,86.333422 64.528962,84.898566 73.256914,80.867378 C 72.499886,81.488507 61.936994,90.780633 55.657879,92.209288 C 46.13442,97.062894 72.975487,81.342642 54.432618,93.518828 C 49.41799,97.728494 43.608823,100.16248 38.470284,104.32553 C 35.359244,106.84598 52.398271,96.593963 48.764571,98.218331 C 47.985758,98.566483 41.095759,105.04723 37.001969,104.7251 L 47.170175,97.142124 z "
         id="path1333"
         style="fill:#000066;fill-opacity:1;fill-rule:nonzero;stroke:none;stroke-width:1px;stroke-linecap:butt;stroke-linejoin:miter;stroke-opacity:1" />
      <path
         d="M 81.372168,90.439382 C 99.28986,78.992376 89.393161,84.916958 87.994047,93.580467 C 87.578158,95.892837 88.074919,100.24239 88.21477,101.42262 C 91.341938,100.61956 94.37511,99.296078 97.589247,98.720843 C 101.251,97.612075 104.04623,98.184947 107.23174,100.18087 C 110.17003,103.17214 111.71202,107.268 112.71918,111.31717 C 112.05159,119.00375 101.47665,121.19869 95.033454,123.80827 C 91.970579,125.21517 88.76947,125.83124 85.43183,126.0649 C 84.178351,126.11773 82.923729,126.10967 81.669559,126.11665 L 91.711758,118.622 C 92.946634,118.60482 94.182765,118.61213 95.415502,118.52092 C 98.670848,118.1328 101.77752,117.31084 104.77665,115.92494 C 117.27989,110.45162 94.739316,124.56841 101.76111,117.2856 C 100.97516,113.509 99.544915,109.74365 96.77002,107.04642 C 93.646863,105.45457 91.0767,105.45496 87.662015,106.36608 C 84.441593,107.20753 81.267461,108.88563 77.913368,108.71488 C 76.47133,105.86119 76.695303,102.62151 76.887854,99.249619 C 78.112914,89.595369 82.052334,87.130516 91.540373,82.85641 L 81.372168,90.439382 z "
         id="path1335"
         style="fill:#000066;fill-opacity:1;fill-rule:nonzero;stroke:none;stroke-width:1px;stroke-linecap:butt;stroke-linejoin:miter;stroke-opacity:1" />
      <path
         d="M 89.589688,84.999267 C 92.776075,84.227555 96.268299,83.599376 99.58347,82.969426 C 103.50861,82.058365 107.48105,81.336048 111.38624,80.361581 C 112.05722,80.037279 112.79951,79.926406 113.5035,79.709633 L 103.39593,87.471976 C 102.67695,87.672994 101.97521,87.937286 101.2392,88.074968 C 97.318439,88.91356 93.417894,89.847001 89.483466,90.631727 C 86.051455,91.296456 82.578998,92.091659 79.152622,92.582239 L 89.589688,84.999267 z "
         id="path1337"
         style="fill:#000066;fill-opacity:1;fill-rule:nonzero;stroke:none;stroke-width:1px;stroke-linecap:butt;stroke-linejoin:miter;stroke-opacity:1" />
      <path
         d="M 220.11728,74.490903 C 224.33637,68.009777 233.79802,65.472332 240.93308,62.298154 C 244.21109,61.160976 247.7135,61.053143 250.88309,62.327483 C 253.47994,65.199202 253.04706,68.261604 251.3173,71.387716 C 246.8158,76.1595 240.78923,78.748327 235.23299,82.086766 C 231.86716,84.109108 248.68,73.973462 245.37771,76.103323 C 239.8244,79.68502 237.38041,80.816571 233.26217,83.243683 C 228.80724,81.766274 242.43613,77.352437 246.29534,76.238393 C 250.68368,75.10703 252.23473,77.430268 252.8193,81.444176 C 252.45593,89.46342 242.85875,91.414772 236.97816,94.766689 C 234.00498,96.3348 230.73845,96.57877 227.55942,97.366176 C 225.95124,97.469071 224.43369,98.061662 222.88357,98.479919 L 232.72901,90.688364 C 234.30425,90.27715 235.86822,89.847728 237.48877,89.667145 C 240.66681,89.028314 243.77346,88.352245 246.7117,86.859844 C 242.73298,89.284741 236.97175,96.614879 241.77274,87.286328 C 241.41256,83.570601 240.12491,82.897615 236.45266,83.967767 C 225.03009,86.491697 232.88554,76.775898 242.94695,75.196082 C 239.88924,77.038239 230.69625,82.529518 233.77382,80.722553 C 237.50282,78.533115 241.17836,76.247757 244.92659,74.093217 C 248.31328,72.146497 238.21458,78.097084 234.85859,80.099018 C 236.60438,78.965041 238.41938,77.860917 239.84901,76.307981 C 241.70276,73.927152 242.51984,71.935598 240.4942,69.319797 C 237.37073,68.861249 234.20494,68.68965 231.24148,70.190836 C 221.02545,74.384853 220.4706,74.908231 231.31598,68.634007 L 220.11728,74.490903 z "
         id="path1339"
         style="fill:#000066;fill-opacity:1;fill-rule:nonzero;stroke:none;stroke-width:1px;stroke-linecap:butt;stroke-linejoin:miter;stroke-opacity:1" />
      <path
         d="M 257.55317,100.43938 C 247.54649,101.61481 261.51231,96.327928 264.17036,94.854474 C 264.60212,95.699974 265.35008,94.787729 265.64699,94.770931 C 262.00713,96.903587 258.36727,99.036244 254.72741,101.1689 L 266.52847,95.985816 C 255.04567,102.85954 259.02532,104.31289 253.36202,101.69665 C 249.25052,95.023689 262.13136,92.525137 267.99024,92.85641 L 257.55317,100.43938 z "
         id="path1341"
         style="fill:#000066;fill-opacity:1;fill-rule:nonzero;stroke:none;stroke-width:1px;stroke-linecap:butt;stroke-linejoin:miter;stroke-opacity:1" />
      <path
         d="M 269.69603,86.867953 C 267.37293,84.803149 267.79468,81.623856 268.3847,78.732423 C 273.27781,72.014554 297.18646,60.799949 273.91135,74.091655 C 268.86498,76.973485 283.79798,67.866571 289.18376,65.683867 C 293.72603,63.403506 293.56357,68.174728 293.56614,71.447865 C 293.51632,74.767715 294.38349,78.012303 294.91695,81.270409 C 295.89797,84.379221 296.31037,87.512464 296.39542,90.757579 C 296.53126,92.485406 296.32422,94.164205 296.08271,95.861138 L 284.53316,101.29156 C 284.83843,99.732577 285.30047,98.214487 285.04113,96.557552 C 284.97045,93.390614 284.69749,90.335495 283.67018,87.31221 C 283.14328,83.962338 282.24063,80.631884 282.20297,77.227864 C 282.201,74.060094 283.02261,71.369814 279.19758,73.497315 C 274.90552,75.581366 268.46188,79.266905 286.47946,68.984015 C 290.84987,66.48976 269.10539,79.147184 273.45168,76.611133 C 292.68608,65.387894 283.566,69.993443 279.96339,73.436901 C 279.42715,75.397265 278.61574,78.15755 280.13309,79.284981 L 269.69603,86.867953 z "
         id="path1343"
         style="fill:#000066;fill-opacity:1;fill-rule:nonzero;stroke:none;stroke-width:1px;stroke-linecap:butt;stroke-linejoin:miter;stroke-opacity:1" />
      <path
         d="M 300.41031,73.296525 C 316.16016,63.76265 310.09014,65.187937 310.00989,73.540668 C 310.85428,76.477979 311.90894,79.417101 312.84034,82.322767 C 317.11308,83.429583 322.07959,83.047899 326.54575,83.043845 C 329.14139,83.101962 331.72976,82.968415 334.31522,82.833754 L 324.17978,90.293534 C 321.65447,90.3004 319.12878,90.30096 316.60293,90.269939 C 311.74376,90.279671 305.85928,91.643909 301.76398,88.700471 C 300.75911,85.641931 299.66999,82.544645 298.71725,79.457195 C 298.2894,70.417228 300.17565,70.597966 310.84738,65.713553 L 300.41031,73.296525 z "
         id="path1345"
         style="fill:#000066;fill-opacity:1;fill-rule:nonzero;stroke:none;stroke-width:1px;stroke-linecap:butt;stroke-linejoin:miter;stroke-opacity:1" />
      <path
         d="M 327.89026,71.662031 C 327.20757,74.403315 327.12967,77.217342 327.10421,80.04255 C 327.08837,83.423256 327.26457,86.802051 326.79416,90.146508 C 326.11833,92.093582 325.21991,93.95219 324.41658,95.849589 L 312.79831,101.16297 C 313.57998,99.284406 314.43413,97.440415 315.24523,95.578601 C 315.86347,92.3914 315.81951,89.123022 315.74344,85.82763 C 315.75501,83.06622 315.63614,80.140828 316.39545,77.518928 L 327.89026,71.662031 z "
         id="path1347"
         style="fill:#000066;fill-opacity:1;fill-rule:nonzero;stroke:none;stroke-width:1px;stroke-linecap:butt;stroke-linejoin:miter;stroke-opacity:1" />
      <path
         d="M 150.68117,228.06233 C 151.52823,224.59647 151.4675,221.00269 151.52781,217.44259 C 151.45445,213.58951 151.08899,209.69383 150.3581,205.90788 C 149.69462,202.8849 150.31894,200.07629 151.20762,197.19642 C 151.65029,196.31043 151.78399,195.33193 152.04902,194.39238 L 163.56805,188.89329 C 163.3404,189.86724 163.19756,190.87636 162.80406,191.80583 C 161.92088,194.46992 161.01572,197.02797 161.63253,199.90242 C 162.41581,203.77083 162.66922,207.77784 162.76739,211.71769 C 162.81,215.18847 163.01907,218.87466 162.17597,222.20544 L 150.68117,228.06233 z "
         id="path1349"
         style="fill:#000066;fill-opacity:1;fill-rule:nonzero;stroke:none;stroke-width:1px;stroke-linecap:butt;stroke-linejoin:miter;stroke-opacity:1" />
      <path
         d="M 164.66683,202.14815 C 168.27179,202.22054 171.87879,202.205 175.48451,202.19547 C 177.64519,202.35968 179.69358,202.12046 181.7916,201.7529 L 171.60749,209.46739 C 169.47967,209.6405 167.34513,209.77996 165.19429,209.67175 C 161.54513,209.66204 157.89481,209.64786 154.24636,209.71907 L 164.66683,202.14815 z "
         id="path1351"
         style="fill:#000066;fill-opacity:1;fill-rule:nonzero;stroke:none;stroke-width:1px;stroke-linecap:butt;stroke-linejoin:miter;stroke-opacity:1" />
      <path
         d="M 177.55317,194.7251 C 192.06491,185.20227 186.58752,187.71418 186.38157,197.11264 C 186.36617,200.51623 186.5352,203.91528 186.11743,207.29288 C 185.74775,210.48878 185.67883,213.62537 184.97156,216.76829 L 173.44602,222.24353 C 174.21062,219.14091 174.48845,216.09355 174.6643,212.89021 C 175.10879,209.56965 175.083,206.24442 175.03021,202.88174 C 175.24368,192.84722 175.85024,192.15548 187.99024,187.14212 L 177.55317,194.7251 z "
         id="path1353"
         style="fill:#000066;fill-opacity:1;fill-rule:nonzero;stroke:none;stroke-width:1px;stroke-linecap:butt;stroke-linejoin:miter;stroke-opacity:1" />
      <path
         d="M 197.55317,211.15367 C 194.48075,210.87718 191.61656,211.06299 188.81937,211.95943 C 206.009,201.71379 194.16167,205.73026 200.65303,211.53291 C 203.51494,213.17522 206.83182,213.77699 210.06604,214.26036 C 218.52188,211.44978 200.45613,226.52204 204.69673,216.29354 C 206.08479,213.33486 205.00955,211.69505 203.02617,209.53412 C 197.93295,203.62768 210.85498,197.77923 215.11499,203.55553 C 216.79344,205.61597 218.03617,207.95772 219.55939,210.13736 C 220.45602,212.13302 221.30346,214.14941 222.07445,216.19661 L 210.91196,222.43964 C 210.17668,220.45627 209.34817,218.51144 208.52322,216.56324 C 207.01224,214.4073 205.75259,212.1072 204.09736,210.05738 C 199.76823,204.4082 211.31401,197.49516 213.91676,202.81165 C 216.1295,205.28499 217.50938,207.54136 216.2942,210.93862 C 213.6239,217.37078 207.11055,222.65602 199.67046,221.63995 C 196.28831,221.02338 192.79255,220.29986 189.88036,218.39183 C 182.57967,211.42377 189.6441,208.16803 198.77117,203.98951 C 201.8101,203.49227 204.89299,203.62341 207.99024,203.5707 L 197.55317,211.15367 z "
         id="path1355"
         style="fill:#000066;fill-opacity:1;fill-rule:nonzero;stroke:none;stroke-width:1px;stroke-linecap:butt;stroke-linejoin:miter;stroke-opacity:1" />
      <path
         d="M 230.30397,197.85641 C 231.74502,200.14004 232.67046,202.70894 233.99738,205.06863 C 235.83035,207.4239 236.90921,210.1842 238.31835,212.78762 C 244.0893,217.79587 229.83768,227.85558 228.43146,220.20301 C 227.47802,217.01081 227.10609,213.96808 227.69117,210.7424 C 232.84843,205.13602 239.3136,202.73371 246.32819,202.01811 C 249.78637,200.97996 252.12579,201.60458 254.86382,203.7348 C 257.12845,206.23663 257.63134,208.94269 257.82458,212.18595 C 257.84317,213.61672 257.83312,215.04767 257.82949,216.4785 L 246.46791,222.2636 C 246.47194,220.84107 246.4798,219.41852 246.47161,217.996 C 246.35484,215.07877 246.08059,212.68032 243.9989,210.43564 C 241.41018,208.75042 239.13557,208.86262 236.12458,209.70175 C 223.89103,210.87799 240.03917,209.04055 239.44805,205.68271 C 238.49805,208.39929 238.62179,211.05539 239.65738,214.09142 C 241.64999,221.56061 227.87113,228.431 227.22919,219.08535 C 225.81226,216.55188 224.77409,213.84286 222.99057,211.5211 C 222.0207,209.81794 220.35421,206.19808 219.86691,205.43938 L 230.30397,197.85641 z "
         id="path1357"
         style="fill:#000066;fill-opacity:1;fill-rule:nonzero;stroke:none;stroke-width:1px;stroke-linecap:butt;stroke-linejoin:miter;stroke-opacity:1" />
      <path
         d="M 301.83888,191.86795 C 299.28777,191.65851 296.94164,192.60506 294.58491,193.43308 C 310.60017,185.48503 300.90757,185.51078 299.97421,194.29292 C 300.44117,197.99858 303.55621,199.81561 306.59893,201.46409 C 310.32052,202.80665 312.39243,204.11844 313.45053,207.91637 C 313.66079,211.06613 312.72672,213.83188 311.08566,216.43282 C 303.4667,221.79788 298.4271,224.79379 289.91265,223.68754 C 288.68991,223.29243 287.48962,222.85147 286.2764,222.4316 L 296.83412,215.30222 C 297.9941,215.6865 299.14006,216.14003 300.34607,216.36486 C 307.49381,216.58712 318.72457,211.54016 299.2025,221.18678 C 301.12574,219.09942 302.19036,216.91935 302.14225,213.83836 C 301.17949,210.51209 299.2336,209.78294 295.95664,208.44467 C 292.58653,206.47037 289.19375,204.17199 288.59447,200.02766 C 289.14887,191.16183 296.06688,189.35299 304.62884,185.54324 C 307.13808,184.79825 309.62351,184.09854 312.27595,184.28498 L 301.83888,191.86795 z "
         id="path1359"
         style="fill:#000066;fill-opacity:1;fill-rule:nonzero;stroke:none;stroke-width:1px;stroke-linecap:butt;stroke-linejoin:miter;stroke-opacity:1" />
      <path
         d="M 326.83888,211.86795 C 316.17592,212.86191 324.38431,210.83796 330.38271,207.62558 C 329.56354,210.802 331.6101,213.12531 333.59489,215.38062 C 336.00877,217.26778 338.96188,217.09793 341.81011,217.71574 C 348.32466,218.52655 357.753,212.23272 337.99612,221.8288 C 338.94607,218.94113 338.6985,215.85832 338.18956,212.9534 C 336.83796,210.5577 334.80269,209.51668 332.41094,208.46959 C 332.02017,208.37456 331.61799,208.36825 331.22152,208.31759 L 341.6604,200.96889 C 342.09803,201.07337 342.55228,201.10832 342.97328,201.28232 C 345.61352,202.59191 347.90304,204.02493 349.33574,206.72809 C 350.2676,209.88303 350.1334,213.2296 349.6203,216.49197 C 346.45432,223.33538 338.34117,226.31932 331.34497,225.0407 C 328.251,224.48938 325.21342,224.29905 322.74109,222.08739 C 320.49934,219.47748 318.30611,216.62911 318.78187,212.98385 C 324.73716,208.89374 329.53984,203.5829 337.27595,204.28498 L 326.83888,211.86795 z "
         id="path1361"
         style="fill:#000066;fill-opacity:1;fill-rule:nonzero;stroke:none;stroke-width:1px;stroke-linecap:butt;stroke-linejoin:miter;stroke-opacity:1" />
      <path
         d="M 365.03312,184.51917 C 365.27061,187.64695 366.65525,190.67265 367.55528,193.69549 C 367.98434,197.32165 367.82696,200.99868 367.80981,204.64631 C 367.82155,208.11648 367.82279,211.58667 367.82312,215.05686 C 367.82311,216.00839 367.82308,216.95992 367.82307,217.91146 L 356.46265,223.69988 C 356.46262,222.74838 356.4626,221.79687 356.46257,220.84536 C 356.4628,217.36951 356.46236,213.89366 356.47946,210.41784 C 356.47291,206.84719 356.60057,203.26169 356.29331,199.70204 C 355.44675,196.5745 354.21831,193.51928 353.53831,190.37607 L 365.03312,184.51917 z "
         id="path1363"
         style="fill:#000066;fill-opacity:1;fill-rule:nonzero;stroke:none;stroke-width:1px;stroke-linecap:butt;stroke-linejoin:miter;stroke-opacity:1" />
      <path
         inkscape:export-filename="/home/az/Programmierung/WebSite/htdocs/projects/coding_for_dummies/speicherfelder.png"
         inkscape:export-ydpi="268.98874"
         inkscape:export-xdpi="268.98874"
         d="M 390.41031,209.01081 C 388.14648,209.34521 385.96375,210.6833 383.79257,211.60332 C 372.3841,218.30074 393.88724,202.08269 387.53741,210.30776 C 386.54949,213.81888 388.05373,216.12246 390.41109,218.50554 C 393.25048,219.59383 396.31077,219.9199 399.34939,220.042 C 409.20059,218.64347 407.65331,217.41745 397.18029,223.20527 C 398.64187,219.96948 397.55269,217.77998 395.62871,215.09903 C 394.15829,212.93093 392.18571,212.17894 389.8585,211.33637 L 400.36765,204.11504 C 402.86466,205.10608 404.97415,206.2519 406.54375,208.53943 C 408.74258,211.62186 409.94595,214.1913 408.87377,218.04144 C 402.67329,222.09594 396.96498,227.96413 389.00951,227.51063 C 385.80346,227.26087 382.4571,226.93017 379.63609,225.3033 C 376.94878,222.67038 375.23989,219.63368 375.98994,215.73357 C 378.66928,208.65771 387.49789,207.11222 393.75418,203.6302 C 396.08983,202.69977 398.27762,201.31239 400.84738,201.42784 L 390.41031,209.01081 z "
         id="path1365"
         style="fill:#000066;fill-opacity:1;fill-rule:nonzero;stroke:none;stroke-width:1px;stroke-linecap:butt;stroke-linejoin:miter;stroke-opacity:1" />
    </g>
  </g>
</svg>
