<?xml version="1.0" encoding="UTF-8" standalone="no"?>
<!-- Created with Inkscape (http://www.inkscape.org/) -->
<svg
   xmlns:dc="http://purl.org/dc/elements/1.1/"
   xmlns:cc="http://web.resource.org/cc/"
   xmlns:rdf="http://www.w3.org/1999/02/22-rdf-syntax-ns#"
   xmlns:svg="http://www.w3.org/2000/svg"
   xmlns="http://www.w3.org/2000/svg"
   xmlns:sodipodi="http://inkscape.sourceforge.net/DTD/sodipodi-0.dtd"
   xmlns:inkscape="http://www.inkscape.org/namespaces/inkscape"
   width="210mm"
   height="297mm"
   id="svg4896"
   sodipodi:version="0.32"
   inkscape:version="0.43"
   sodipodi:docbase="/home/az/Programmierung/WebSite/htdocs/projects/coding_for_dummies"
   sodipodi:docname="todo_liste.svg"
   inkscape:export-filename="/home/az/Programmierung/WebSite/htdocs/projects/coding_for_dummies/todo_liste.png"
   inkscape:export-xdpi="27.275368"
   inkscape:export-ydpi="27.275368">
  <defs
     id="defs4898" />
  <sodipodi:namedview
     id="base"
     pagecolor="#ffffff"
     bordercolor="#666666"
     borderopacity="1.0"
     inkscape:pageopacity="0.0"
     inkscape:pageshadow="2"
     inkscape:zoom="0.98994949"
     inkscape:cx="305.71261"
     inkscape:cy="699.667"
     inkscape:document-units="px"
     inkscape:current-layer="layer1"
     inkscape:window-width="1280"
     inkscape:window-height="949"
     inkscape:window-x="0"
     inkscape:window-y="25" />
  <metadata
     id="metadata4901">
    <rdf:RDF>
      <cc:Work
         rdf:about="">
        <dc:format>image/svg+xml</dc:format>
        <dc:type
           rdf:resource="http://purl.org/dc/dcmitype/StillImage" />
      </cc:Work>
    </rdf:RDF>
  </metadata>
  <g
     inkscape:label="Ebene 1"
     inkscape:groupmode="layer"
     id="layer1">
    <g
       id="g4916"
       style="fill:#77005b;fill-opacity:1">
      <path
         d="M 252.96802,19.675073 C 256.6185,23.089969 258.43673,27.832333 260.26716,32.412647 C 263.4786,42.833454 265.63294,53.531106 266.34519,64.409 C 266.60223,74.757497 266.76062,85.119706 265.96184,95.445019 C 265.80517,98.320025 265.0624,101.07156 264.34886,103.83478 L 248.0447,111.43672 C 248.91939,108.81024 249.74221,106.19241 250.02152,103.40681 C 250.9159,93.133722 250.86087,82.835391 250.60064,72.526016 C 250.05325,61.832003 247.94444,51.323216 244.66154,41.126177 C 243.1964,37.570854 240.77384,31.621515 238.20778,30.399015 L 252.96802,19.675073 z "
         id="path4904"
         style="fill:#77005b;fill-opacity:1;fill-rule:nonzero;stroke:none;stroke-width:1px;stroke-linecap:butt;stroke-linejoin:miter;stroke-opacity:1" />
      <path
         d="M 205.01413,30.067816 C 217.29186,20.110607 227.71032,18.210982 243.14732,19.175794 C 252.52379,19.615254 261.66224,21.947184 271.01218,22.672344 C 277.24932,23.566114 282.92259,21.921379 288.78119,20.174305 C 290.07673,19.544923 291.5055,19.381921 292.88216,19.046546 L 278.53186,29.954719 C 277.18636,30.355043 275.8317,30.728899 274.48863,31.139128 C 268.58435,33.095632 262.64937,33.867588 256.42113,33.088492 C 247.18739,31.950738 238.0603,29.948188 228.75061,29.506938 C 216.23987,29.153996 191.82801,36.784248 221.27024,21.784914 L 205.01413,30.067816 z "
         id="path4906"
         style="fill:#77005b;fill-opacity:1;fill-rule:nonzero;stroke:none;stroke-width:1px;stroke-linecap:butt;stroke-linejoin:miter;stroke-opacity:1" />
      <path
         d="M 329.89,36.45993 C 316.59531,41.527898 321.76978,39.557068 332.83343,33.34222 C 324.9969,39.516947 321.00806,49.359858 317.73891,58.523721 C 314.68807,67.647134 312.25087,76.539666 317.77574,84.875319 C 323.2751,90.450364 330.29608,93.360507 337.76057,95.156518 C 365.93968,92.460195 330.97655,106.62593 339.47575,98.733136 C 344.68396,92.823152 346.88483,85.577056 348.24982,78.009234 C 348.94553,72.299866 348.45696,66.59656 347.90751,60.9046 C 347.39518,54.758101 345.15407,49.296584 342.17267,43.986983 C 339.24066,39.771759 335.77032,36.575536 331.00494,34.823073 C 330.39879,34.652054 329.76937,34.628685 329.15159,34.531491 L 343.92062,24.17799 C 344.58673,24.342422 345.27494,24.417336 345.91895,24.671288 C 350.85419,26.911478 354.58992,30.432655 357.69766,34.946454 C 360.7912,40.504931 363.25871,46.210417 363.80054,52.639128 C 364.29333,58.440972 365.10678,64.226283 364.37849,70.058742 C 363.08618,77.900911 360.93046,85.4715 355.8776,91.816379 C 347.02541,101.87384 335.74633,107.92445 323.02752,105.39977 C 315.35523,103.16825 308.00126,99.984657 302.42407,94.039026 C 296.14526,85.383869 298.71894,75.640108 301.7595,66.012012 C 304.97606,56.658513 308.81605,46.749913 316.20446,39.903764 C 324.75542,34.841112 334.28095,27.256472 344.65024,25.735988 L 329.89,36.45993 z "
         id="path4908"
         style="fill:#77005b;fill-opacity:1;fill-rule:nonzero;stroke:none;stroke-width:1px;stroke-linecap:butt;stroke-linejoin:miter;stroke-opacity:1" />
      <path
         d="M 399.44014,23.715683 C 403.15898,26.847449 405.1712,31.179255 407.40891,35.414388 C 411.62605,42.340938 413.23598,49.963505 414.30366,57.875537 C 414.69956,66.368626 415.44484,74.823184 416.0452,83.301292 C 416.56596,88.353237 414.26419,92.641448 411.95483,96.946148 C 409.39826,101.64857 409.41172,103.1928 414.43684,104.7165 C 418.96343,105.90811 423.70154,105.61794 428.34381,105.60775 C 434.15303,105.09208 439.54171,102.49556 444.64333,99.810102 C 421.41481,115.61457 435.23899,105.47258 438.81455,94.640542 C 439.51749,88.25047 440.12056,81.807444 440.43357,75.373404 C 441.03575,69.408337 440.43749,64.427249 437.83163,59.104928 C 433.88805,53.738521 430.08616,48.237566 425.58625,43.333193 C 421.17816,40.840177 416.53403,39.294054 412.3877,36.297051 C 408.36396,32.815077 404.02707,32.415207 398.9676,32.326391 C 395.96288,32.731626 392.94731,33.342866 389.95331,33.938468 L 404.3234,23.042494 C 407.38387,22.507151 410.44457,21.700797 413.56492,21.741815 C 418.90464,21.95156 423.44879,23.105209 427.62416,26.688936 C 431.84839,29.600291 436.85571,30.764497 440.90723,33.918429 C 445.40918,39.024531 449.29586,44.630563 453.31867,50.125087 C 456.46432,55.64902 457.02689,60.965067 456.46068,67.277305 C 456.14294,73.820216 455.4622,80.325984 454.99827,86.853585 C 451.17207,100.63499 445.41313,104.17194 430.70803,111.08406 C 425.30985,113.52233 419.82115,116.26735 413.75834,116.20884 C 408.98576,116.20803 404.13421,116.38614 399.53564,114.88987 C 394.12787,112.58639 392.59212,109.91243 395.51996,104.28008 C 397.82517,100.30503 400.14827,96.249684 400.03755,91.540975 C 399.66911,83.064482 398.94381,74.606896 398.5792,66.130886 C 397.49189,58.471225 395.96352,51.019273 391.86404,44.314835 C 390.00881,40.940853 387.40885,35.511104 384.6799,34.439625 L 399.44014,23.715683 z "
         id="path4910"
         style="fill:#77005b;fill-opacity:1;fill-rule:nonzero;stroke:none;stroke-width:1px;stroke-linecap:butt;stroke-linejoin:miter;stroke-opacity:1" />
      <path
         d="M 492.52456,38.480235 C 478.46516,46.071891 512.07786,25.765844 497.5433,35.783542 C 491.96241,39.438957 487.72222,43.558532 486.06537,50.064014 C 485.41432,55.855701 485.84522,61.640196 486.56578,67.39499 C 488.11283,73.757754 490.00281,80.01403 493.73313,85.401749 C 497.59187,89.56302 501.9808,91.783824 507.55297,92.427852 C 527.84046,88.052618 492.84869,107.52021 506.95715,95.427646 C 511.41406,91.681144 515.35299,87.785653 517.48199,82.344106 C 519.35605,77.457099 519.49721,72.922776 518.14373,67.998448 C 515.70585,63.768184 513.66604,59.357574 511.82919,54.839984 C 509.06397,50.257843 505.22313,46.466693 501.96291,42.230853 C 499.83912,38.035645 497.27479,36.107328 492.76,35.411055 L 507.47427,24.961024 C 512.11519,26.306603 515.25647,28.516164 517.46511,33.040707 C 520.75868,37.446467 524.80286,41.261771 527.55339,46.03872 C 529.38596,50.551908 531.42294,54.975417 533.8602,59.199937 C 535.68682,64.387785 535.63546,69.371481 533.71317,74.60732 C 531.84413,80.503075 528.39881,84.708269 523.59361,88.649162 C 515.24688,96.46778 504.8077,104.75579 492.9048,102.8518 C 487.0796,101.74941 482.30187,99.163838 478.33007,94.65536 C 474.51839,88.924724 472.36648,82.484206 470.74112,75.787685 C 469.93674,69.888325 469.37229,63.970311 469.89961,58.006716 C 471.21529,50.984115 474.92035,46.321666 480.89896,42.340216 C 489.11094,36.651706 497.60944,29.666795 507.2848,27.756293 L 492.52456,38.480235 z "
         id="path4912"
         style="fill:#77005b;fill-opacity:1;fill-rule:nonzero;stroke:none;stroke-width:1px;stroke-linecap:butt;stroke-linejoin:miter;stroke-opacity:1" />
    </g>
    <path
       style="fill:#000000;fill-opacity:1;fill-rule:nonzero;stroke:none;stroke-width:1px;stroke-linecap:butt;stroke-linejoin:miter;stroke-opacity:1"
       id="path4914"
       d="M 216.71162,144.94251 C 232.02221,142.32072 247.60957,140.04182 263.10444,138.26745 C 279.64096,137.10144 296.20246,136.73882 312.67442,134.74195 C 337.74234,132.70508 362.58869,128.66071 387.53072,125.50426 C 400.68594,122.97652 414.03425,122.82161 427.37049,122.82358 C 437.40242,122.85786 447.43393,122.87009 457.46591,122.84712 C 472.11074,123.21074 486.75005,124.35493 501.24997,126.49301 C 524.09448,129.08609 546.78824,132.88792 569.73738,134.51234 C 580.7869,135.12669 567.01307,134.31506 576.2634,134.98492 L 561.9173,145.17638 C 553.02277,144.25741 566.59642,145.51006 555.69921,144.53394 C 532.82232,142.32287 510.03858,139.25017 487.23709,136.39115 C 472.58202,134.61627 457.85074,133.36306 443.08103,133.29838 C 433.04302,133.27543 423.00532,133.29883 412.96739,133.28346 C 399.87566,133.24066 386.79523,133.47201 373.84723,135.7051 C 348.80881,138.71918 323.90102,142.77885 298.78155,145.10065 C 282.34252,147.19447 265.80338,147.26059 249.30126,148.54147 C 233.46098,150.39965 217.64921,152.84538 201.97485,155.64941 L 216.71162,144.94251 z " />
    <g
       id="g9386"
       style="fill:#000000;fill-opacity:0.34782609">
      <path
         d="M 173.16597,191.40101 C 177.88398,195.57408 180.34428,201.73918 186.23756,204.33009 C 186.11985,204.95438 189.78865,202.97521 189.68294,203.03452 C 154.9395,222.52603 196.26202,197.47943 199.37612,196.27331 C 200.49253,195.84092 204.58888,201.42464 205.19437,202.12567 C 220.07315,215.43233 220.01103,203.60655 236.70625,194.52608 C 248.80742,185.40802 248.63437,206.26638 258.63506,203.12749 C 275.33659,192.56927 280.80766,193.61664 289.97897,210.70919 C 301.02653,213.40389 276.42688,222.22866 284.17128,217.74685 C 297.12274,210.25164 326.01677,186.07489 342.18167,195.56486 C 356.3308,209.76255 360.23259,210.73649 378.51141,200.1014 C 390.1805,191.35283 393.8166,198.78061 401.13743,206.88006 C 422.26746,201.67386 460.1177,161.1764 482.50011,175.14431 C 489.53343,180.83082 492.31593,191.19593 497.62921,197.07724 L 482.74687,207.347 C 476.03909,201.60098 476.47156,189.51991 467.81157,184.67352 C 440.0848,175.28111 412.01134,214.05924 385.90303,216.47531 C 379.14986,208.05649 376.11599,202.88568 365.12142,210.94224 C 346.24308,221.70737 341.72907,218.97614 327.65493,205.0336 C 312.46611,197.12258 289.10518,218.11036 290.27021,217.37189 C 293.53502,215.30244 303.63714,209.6008 300.28747,211.52988 C 294.09362,215.09694 280.84332,229.29091 274.61298,219.45853 C 265.77347,201.9257 260.73104,205.51127 244.60966,213.90797 C 234.10232,214.22839 234.90643,197.94122 223.15658,205.44509 C 222.11285,206.01732 219.00083,207.76768 220.02539,207.16179 C 223.72858,204.97184 234.92447,198.54966 231.19366,200.69222 C 220.8892,206.60992 199.81042,226.90987 189.98165,211.26109 C 178.86192,199.20914 209.00476,194.32944 192.56394,204.34704 C 179.66132,212.20878 180.52465,214.51534 171.34911,214.43605 C 166.05541,211.28554 163.17868,205.35643 158.40573,202.12495 L 173.16597,191.40101 z "
         id="path5814"
         style="fill:#000000;fill-opacity:0.34782609;fill-rule:nonzero;stroke:none;stroke-width:1px;stroke-linecap:butt;stroke-linejoin:miter;stroke-opacity:1" />
      <path
         d="M 183.26749,270.1929 C 188.42128,274.34156 192.74665,279.48354 199.1118,281.69539 C 224.17937,286.50865 245.30846,261.06466 268.95252,261.33277 C 274.1212,261.49995 273.86659,271.88515 278.05003,272.52427 C 279.01865,272.67224 281.64163,270.9702 280.78385,271.44384 C 255.76616,285.25776 271.11726,276.33533 276.87529,271.80933 C 297.77168,253.30986 297.41113,260.74095 310.14521,271.2172 C 320.60351,268.10567 326.42837,271.74954 332.77473,279.69499 C 342.69563,288.0986 358.02778,275.94684 367.92779,271.37848 C 371.17018,271.2913 371.0977,272.59615 371.77843,275.33926 L 355.6266,283.42396 C 355.5323,283.36863 355.91226,280.09324 353.92662,282.42642 C 343.66931,287.29663 327.16643,299.29299 317.44464,288.88661 C 310.96768,280.55447 305.61326,279.85534 295.33551,281.45935 C 283.27717,271.28382 284.08044,270.66658 297.70518,262.3889 C 299.27286,261.43646 290.28663,266.36948 293.05873,265.33737 C 275.73714,278.76204 267.17097,288.812 254.40455,271.58657 C 230.55529,274.08256 209.6291,296.07479 184.35582,291.74513 C 178.38725,289.17198 173.79857,283.76597 168.50725,280.91685 L 183.26749,270.1929 z "
         id="path5816"
         style="fill:#000000;fill-opacity:0.34782609;fill-rule:nonzero;stroke:none;stroke-width:1px;stroke-linecap:butt;stroke-linejoin:miter;stroke-opacity:1" />
      <path
         d="M 422.67365,285.34519 C 430.36567,294.29214 439.63917,291.87215 449.87871,288.09829 C 446.83286,290.30146 460.91893,282.33688 458.23017,283.90867 C 432.50559,298.9467 463.32476,272.92884 480.40122,280.82325 C 490.11706,283.51881 499.01496,288.35318 509.04091,289.62736 C 534.21706,294.06787 557.56,277.16634 582.266,278.05352 C 587.07795,279.93412 589.02297,283.74171 594.07971,285.40837 C 595.92105,285.93742 597.77583,286.41996 599.63085,286.89877 L 584.94874,296.979 C 583.07284,296.49435 581.19459,296.01705 579.32964,295.49158 C 574.47015,293.78078 572.35005,289.92635 567.68702,288.4384 C 543.18276,288.44696 520.07018,303.46955 495.13133,299.491 C 484.83884,298.41414 475.35618,293.83554 465.51914,290.70863 C 462.38865,289.24007 452.61678,289.69076 455.54623,287.85366 C 460.07742,285.0121 464.72263,282.35583 469.34969,279.67321 C 470.6966,278.89232 466.80411,281.46652 465.53879,282.37367 C 457.98395,287.78996 458.86879,286.7465 444.80666,294.68683 C 441.84456,296.3594 439.57144,297.23497 436.42234,298.59583 C 425.48526,302.35246 416.51331,303.57237 407.91341,296.06913 L 422.67365,285.34519 z "
         id="path5818"
         style="fill:#000000;fill-opacity:0.34782609;fill-rule:nonzero;stroke:none;stroke-width:1px;stroke-linecap:butt;stroke-linejoin:miter;stroke-opacity:1" />
      <path
         d="M 183.26749,376.25892 C 205.01596,389.62491 228.59692,400.52948 254.59204,401.80454 C 283.22186,395.42401 208.36409,430.70818 247.98027,407.93264 C 253.95127,404.49989 259.83254,400.90466 265.90544,397.65558 C 267.49599,396.80461 272.23316,394.18967 270.6738,395.09654 C 266.90867,397.2862 263.14691,399.48245 259.34839,401.61367 C 258.11071,402.30808 261.78374,400.15562 262.98986,399.40773 C 270.8165,394.55455 278.38681,390.13176 286.52103,385.41709 C 295.06974,385.19581 298.04079,390.12043 307.12627,387.23325 C 315.2147,385.12413 324.83327,380.49255 331.72737,386.7381 C 341.82151,394.77664 365.11294,378.89578 336.39042,394.63645 C 356.33374,378.97711 349.2644,390.33881 366.18725,391.00913 C 371.94512,388.31108 381.31404,384.23894 355.102,397.3525 C 353.42576,398.1911 354.54848,392.88048 352.79219,392.22587 C 351.25602,391.65331 346.61195,394.30967 348.04599,393.51521 C 352.90355,390.75639 357.7611,387.99757 362.61866,385.23875 C 362.51834,385.59658 362.41803,385.95441 362.31771,386.31224 C 366.58117,400.46371 378.33254,402.45594 391.49719,403.37432 C 400.85868,404.03269 409.68076,401.94882 418.07372,398.05733 L 404.2802,409.0638 C 395.70495,412.37614 386.74834,414.14072 377.47883,413.40804 C 362.81242,412.3464 351.713,409.47184 346.39783,394.45632 C 377.23971,370.47575 379.43525,390.99282 351.83546,401.44424 C 334.31803,399.58954 333.25806,389.62451 352.76282,387.05883 C 343.80426,393.10527 328.21187,406.75093 316.36878,396.16534 C 309.50487,391.71399 300.61644,396.04031 293.18042,398.01965 C 284.32391,400.56495 280.7933,394.91646 272.82437,396.50016 C 277.02832,394.0523 281.2091,391.56419 285.43622,389.15656 C 286.455,388.5763 283.44152,390.38941 282.45121,391.01703 C 274.08619,396.3185 265.73637,401.08514 257.05297,406.08969 C 254.83873,407.36583 248.13504,411.08593 250.34199,409.79721 C 255.14243,406.99405 269.58933,398.66318 264.76504,401.42508 C 253.44188,407.90757 251.04793,412.0587 240.54009,411.83554 C 214.81454,408.7464 191.49719,397.64321 168.50725,386.98286 L 183.26749,376.25892 z "
         id="path5820"
         style="fill:#000000;fill-opacity:0.34782609;fill-rule:nonzero;stroke:none;stroke-width:1px;stroke-linecap:butt;stroke-linejoin:miter;stroke-opacity:1" />
      <path
         d="M 458.17937,399.10469 C 463.40804,396.23991 475.19393,384.69819 473.86539,390.51033 C 472.50355,396.46817 463.3803,396.79736 458.03114,399.75318 C 451.32056,403.46128 485.17717,385.48435 478.40511,389.07895 C 458.77894,399.4965 464.44657,397.36425 470.1047,391.83608 C 487.66426,371.5428 489.08128,383.51977 501.89536,389.72378 C 505.21393,390.55468 508.4644,389.79572 511.7344,389.16153 L 497.48208,399.87986 C 493.97545,400.35617 490.52379,400.86931 487.06363,399.73334 C 472.84331,392.70034 477.01162,390.518 489.61016,382.7348 C 490.74818,382.03175 483.67018,385.29663 486.31097,385.01945 C 469.6058,402.88961 451.95524,400.54786 456.37522,397.76026 C 461.56576,394.48668 467.82848,392.64154 472.17294,388.30752 C 472.35469,388.12621 430.32469,412.66127 472.93961,388.38075 L 458.17937,399.10469 z "
         id="path5822"
         style="fill:#000000;fill-opacity:0.34782609;fill-rule:nonzero;stroke:none;stroke-width:1px;stroke-linecap:butt;stroke-linejoin:miter;stroke-opacity:1" />
      <path
         d="M 545.29493,385.05968 C 555.70578,399.36223 575.73847,386.73179 550.51197,400.99335 C 570.05996,383.21473 573.18764,391.51155 593.21243,394.35242 C 612.39142,398.67528 633.12568,392.11929 652.01014,397.39507 C 657.60933,399.13426 662.92633,401.22077 668.79473,401.57331 C 669.19341,401.58073 669.59209,401.58815 669.99077,401.59557 L 655.41203,412.12423 C 655.00398,412.10863 654.59593,412.09303 654.18787,412.07743 C 648.3093,411.44945 642.94393,409.14233 637.27265,407.51315 C 618.5452,402.67007 598.23045,407.75717 579.2563,404.19807 C 557.10619,401.12815 551.52341,403.26433 570.44814,392.19817 C 571.58102,391.53572 565.94144,394.49024 567.25376,394.49952 C 550.31334,404.2132 543.66301,408.46768 529.74904,394.58621 L 545.29493,385.05968 z "
         id="path5824"
         style="fill:#000000;fill-opacity:0.34782609;fill-rule:nonzero;stroke:none;stroke-width:1px;stroke-linecap:butt;stroke-linejoin:miter;stroke-opacity:1" />
      <path
         d="M 207.03444,500.7989 C 220.57213,489.41883 226.92481,488.14011 242.55618,491.39303 C 251.71212,494.85055 263.3698,492.49045 270.75623,499.22844 C 318.38454,501.8634 200.65463,508.63172 289.6726,491.76899 C 291.39954,491.79076 292.92298,492.51634 294.50481,493.10455 L 279.57086,503.16915 C 278.11196,502.87321 276.73833,502.15784 275.19155,502.51025 C 268.55662,504.75547 260.61164,510.04409 284.31919,496.3111 C 284.69929,496.09092 261.00595,515.89904 255.4691,508.75062 C 248.52688,502.63877 236.58297,504.84299 228.24131,501.37881 C 214.60348,498.90264 197.55604,506.09621 223.29055,492.516 L 207.03444,500.7989 z "
         id="path5826"
         style="fill:#000000;fill-opacity:0.34782609;fill-rule:nonzero;stroke:none;stroke-width:1px;stroke-linecap:butt;stroke-linejoin:miter;stroke-opacity:1" />
      <path
         d="M 388.32846,501.51784 C 403.99218,498.16719 403.13371,495.64747 387.44611,504.14694 C 392.85043,496.99965 401.23801,493.38716 409.7497,492.91408 L 395.61879,503.37032 C 382.6402,506.1929 403.34114,493.3943 404.02573,497.10976 C 394.89507,502.9295 385.27112,511.83618 373.56822,512.24178 L 388.32846,501.51784 z "
         id="path5828"
         style="fill:#000000;fill-opacity:0.34782609;fill-rule:nonzero;stroke:none;stroke-width:1px;stroke-linecap:butt;stroke-linejoin:miter;stroke-opacity:1" />
      <path
         d="M 510.77512,494.46381 C 517.65644,494.13236 524.59744,493.83028 531.47723,493.25202 L 517.21576,503.7967 C 510.17233,504.33275 503.11221,504.73596 496.0618,505.15367 L 510.77512,494.46381 z "
         id="path5830"
         style="fill:#000000;fill-opacity:0.34782609;fill-rule:nonzero;stroke:none;stroke-width:1px;stroke-linecap:butt;stroke-linejoin:miter;stroke-opacity:1" />
      <path
         d="M 576.21683,492.42646 C 584.65712,491.72771 593.23954,491.72568 601.75164,491.6104 C 602.55942,491.59841 603.36721,491.58642 604.17499,491.57443 L 589.85967,501.98575 C 589.07662,501.98148 588.29358,501.97722 587.51053,501.97296 C 578.79441,502.00947 570.11541,502.33974 561.45659,503.15041 L 576.21683,492.42646 z "
         id="path5832"
         style="fill:#000000;fill-opacity:0.34782609;fill-rule:nonzero;stroke:none;stroke-width:1px;stroke-linecap:butt;stroke-linejoin:miter;stroke-opacity:1" />
      <path
         d="M 412.68122,493.44514 C 422.26956,493.93512 431.83619,493.06405 441.40298,492.55519 C 453.24981,491.65035 464.94165,489.64892 476.83485,489.57752 C 483.59677,489.58076 490.35869,489.56888 497.12042,489.51912 L 482.71085,499.98601 C 475.99443,499.92156 469.27685,499.87376 462.56057,499.97685 C 450.72875,500.32807 439.01965,502.08298 427.22465,503.00731 C 417.46504,503.52401 407.7246,504.22285 397.94444,504.15204 L 412.68122,493.44514 z "
         id="path5834"
         style="fill:#000000;fill-opacity:0.34782609;fill-rule:nonzero;stroke:none;stroke-width:1px;stroke-linecap:butt;stroke-linejoin:miter;stroke-opacity:1" />
      <path
         d="M 325.31595,478.61553 C 325.55361,484.72942 329.62256,489.40572 333.81416,493.51039 C 338.1125,497.4441 337.97208,500.77455 334.58512,505.08302 C 334.50548,505.05143 333.53583,506.14278 333.52999,506.14867 L 316.77635,512.98715 C 317.13522,512.64343 317.67661,512.49226 317.85297,511.95599 C 321.2139,508.55363 322.64391,506.67887 318.46509,502.97605 C 314.18742,498.36748 310.13718,493.23743 309.05984,486.89843 L 325.31595,478.61553 z "
         id="path5836"
         style="fill:#000000;fill-opacity:0.34782609;fill-rule:nonzero;stroke:none;stroke-width:1px;stroke-linecap:butt;stroke-linejoin:miter;stroke-opacity:1" />
      <path
         d="M 346.05244,498.09964 C 335.36448,504.5186 360.39725,481.5913 353.85589,496.58999 C 353.80165,496.91815 353.74741,497.24631 353.69317,497.57447 L 337.529,505.54408 C 337.56655,505.17946 337.6041,504.81483 337.64165,504.45021 C 340.10801,494.3543 350.7592,488.49189 360.81268,487.3757 L 346.05244,498.09964 z "
         id="path5838"
         style="fill:#000000;fill-opacity:0.34782609;fill-rule:nonzero;stroke:none;stroke-width:1px;stroke-linecap:butt;stroke-linejoin:miter;stroke-opacity:1" />
    </g>
    <g
       id="g6747"
       style="fill:#0000d6;fill-opacity:1">
      <path
         d="M 93.363918,561.11684 C 99.982043,560.90724 106.02625,564.00268 112.25357,565.84247 C 119.35464,567.31678 126.6478,567.39965 133.86114,567.18722 L 119.54943,577.67922 C 112.2319,577.59821 104.83457,577.48589 97.663688,575.86875 C 91.396762,574.00546 85.29286,571.13615 78.603678,571.84078 L 93.363918,561.11684 z "
         id="path5842"
         style="fill:#0000d6;fill-opacity:1;fill-rule:nonzero;stroke:none;stroke-width:1px;stroke-linecap:butt;stroke-linejoin:miter;stroke-opacity:1" />
      <g
         style="fill:#0000d6;fill-opacity:1"
         id="g5860">
        <path
           style="fill:#0000d6;fill-opacity:1;fill-rule:nonzero;stroke:none;stroke-width:1px;stroke-linecap:butt;stroke-linejoin:miter;stroke-opacity:1"
           id="path5798"
           d="M 118.76812,243.5412 C 114.58829,235.64503 132.69005,225.98001 134.01462,237.39565 C 128.60317,240.4151 123.19172,243.43454 117.78027,246.45399 C 117.51432,246.39234 117.24836,246.33069 116.98241,246.26904 L 131.60549,235.56783 C 131.7649,235.49156 131.92432,235.4153 132.08373,235.33903 C 127.09182,238.21809 122.09992,241.09715 117.10801,243.97621 C 118.77064,242.72177 126.2867,227.44902 133.52836,232.81726 L 118.76812,243.5412 z " />
        <path
           style="fill:#0000d6;fill-opacity:1;fill-rule:nonzero;stroke:none;stroke-width:1px;stroke-linecap:butt;stroke-linejoin:miter;stroke-opacity:1"
           id="path5802"
           d="M 134.93056,326.37371 C 124.37739,327.47409 143.45543,321.71431 146.64169,320.3604 C 158.35157,321.97702 134.32639,326.57342 134.20885,326.62258 L 148.95173,316.11413 C 158.93028,323.31768 140.94317,333.53765 131.60375,330.37087 C 123.51198,321.52926 140.19771,315.51301 149.6908,315.64977 L 134.93056,326.37371 z " />
        <path
           style="fill:#0000d6;fill-opacity:1;fill-rule:nonzero;stroke:none;stroke-width:1px;stroke-linecap:butt;stroke-linejoin:miter;stroke-opacity:1"
           id="path5806"
           d="M 148.06254,436.48034 C 174.2722,421.21336 159.2636,434.39648 146.26559,441.21184 C 146.62008,442.12674 144.6787,438.98325 144.38435,438.64726 L 161.33873,431.95979 C 161.95487,432.79519 162.82791,433.49209 163.18716,434.46597 C 132.62929,450.65882 146.05698,432.62097 162.82278,425.7564 L 148.06254,436.48034 z " />
        <path
           style="fill:#0000d6;fill-opacity:1;fill-rule:nonzero;stroke:none;stroke-width:1px;stroke-linecap:butt;stroke-linejoin:miter;stroke-opacity:1"
           id="path5812"
           d="M 168.74231,512.96071 C 180.33892,516.16528 163.63639,521.48847 156.1176,525.95217 C 193.8915,504.04659 158.30307,524.54761 155.33797,526.23568 L 170.00194,515.37308 C 139.75552,532.78132 158.90757,521.66812 170.30636,514.60728 C 165.03429,518.12622 156.25921,526.33695 152.4862,521.24362 L 168.74231,512.96071 z " />
        <g
           style="fill:#0000d6;fill-opacity:1"
           id="g5852">
          <path
             d="M 56.521707,214.92573 C 56.971268,210.24216 59.117469,205.88728 61.403458,201.82913 C 68.628649,191.36115 80.184924,186.13903 90.97873,179.97749 C 96.804124,178.19691 100.94938,174.37678 103.59343,181.12377 C 104.12711,188.24604 103.96733,195.40911 103.99259,202.55021 C 103.97702,207.33621 104.19418,212.11853 103.60562,216.86741 C 102.71882,221.62141 101.21374,226.23306 100.00161,230.9138 C 99.812377,231.92942 99.410842,232.88516 99.116352,233.86786 L 82.748649,241.47409 C 83.082562,240.52528 83.656868,239.6681 83.745856,238.64053 C 84.975337,234.0189 86.316156,229.41688 87.408424,224.78313 C 88.033442,220.11954 88.010219,215.44837 87.941485,210.72522 C 87.999575,203.67391 88.293255,196.59862 87.739499,189.56386 C 85.434283,188.8745 81.389715,188.05355 76.891751,191.23377 C 106.71891,173.92067 83.13386,186.67403 77.835585,194.5234 C 75.537925,198.24889 73.472752,202.33184 72.777818,206.64283 L 56.521707,214.92573 z "
             id="path5796"
             style="fill:#0000d6;fill-opacity:1;fill-rule:nonzero;stroke:none;stroke-width:1px;stroke-linecap:butt;stroke-linejoin:miter;stroke-opacity:1" />
          <path
             d="M 64.219879,298.08944 C 60.362991,286.87957 77.99286,282.95352 85.579216,278.82255 C 92.35752,277.79312 97.874885,277.68479 103.32846,281.93711 C 107.6458,285.72918 108.66259,291.10213 108.76616,296.58506 C 107.38523,302.34498 103.09093,306.28174 98.472408,309.66325 C 94.234179,312.70868 89.94916,315.69553 85.729297,318.76934 C 79.682425,319.12439 93.276527,319.21133 95.917612,319.47188 C 101.66636,319.89838 107.43723,319.76733 113.19717,319.75556 C 115.21272,319.75286 117.22828,319.75339 119.24383,319.75296 L 104.656,330.35199 C 102.6411,330.35285 100.6262,330.35319 98.611309,330.35517 C 92.844933,330.35595 87.065126,330.40221 81.318297,329.85924 C 76.161984,329.30689 66.225353,331.14058 68.96172,325.41833 C 73.216643,322.34942 77.51893,319.36004 81.710707,316.19365 C 86.284346,313.20566 90.476431,309.7641 92.617103,304.58439 C 92.645797,299.60162 92.112356,294.8492 88.034067,291.39107 C 82.988661,287.94609 77.236128,288.51256 71.358579,289.81084 C 100.67665,272.08801 82.319498,281.30036 78.980119,287.3655 L 64.219879,298.08944 z "
             id="path5800"
             style="fill:#0000d6;fill-opacity:1;fill-rule:nonzero;stroke:none;stroke-width:1px;stroke-linecap:butt;stroke-linejoin:miter;stroke-opacity:1" />
          <path
             d="M 72.684148,380.59075 C 75.324484,370.42522 89.954313,365.4 97.539198,361.05794 C 103.63967,359.38141 109.69157,360.29744 115.02564,363.57446 C 119.75457,367.04536 121.65615,371.65829 122.16266,377.3055 C 122.48556,390.06643 109.2275,393.16807 99.395705,398.82807 C 94.829029,400.4675 89.89622,400.05696 85.118792,400.10123 C 98.393107,388.16865 103.85533,384.37602 118.23222,395.73017 C 123.6352,400.05127 124.26941,405.31264 124.24636,411.70858 C 122.78845,422.6849 109.32189,426.41632 100.26189,430.70453 C 95.68998,433.07363 90.886419,434.12818 85.786675,434.37328 C 80.307641,435.01496 76.365241,432.66952 72.303532,429.38877 C 71.877549,428.67927 71.066878,428.39838 70.465653,427.91687 L 85.691433,418.1607 C 86.326829,418.70192 87.04065,419.15871 87.602679,419.78867 C 91.523778,422.84537 95.150081,424.45828 100.29979,423.73108 C 105.23777,423.2185 109.92672,421.86379 114.29027,419.42206 C 121.23323,416.00215 97.031062,434.39024 108.17152,419.87872 C 108.21172,414.00513 108.19241,409.20826 103.19285,405.1281 C 89.603359,394.28547 77.470462,405.60696 99.835881,389.42897 C 104.46397,389.49541 109.23396,389.8054 113.4152,387.49063 C 88.882508,401.88048 105.35679,396.48314 106.13022,385.55482 C 105.71925,380.41455 104.44079,376.30371 99.854729,373.30425 C 94.589423,370.8213 89.079467,369.74044 83.516418,372.30111 C 112.23364,355.60141 92.455214,365.12577 88.940259,372.30785 L 72.684148,380.59075 z "
             id="path5804"
             style="fill:#0000d6;fill-opacity:1;fill-rule:nonzero;stroke:none;stroke-width:1px;stroke-linecap:butt;stroke-linejoin:miter;stroke-opacity:1" />
          <path
             d="M 84.899649,463.46324 C 84.261023,468.28108 85.375067,472.45704 87.305769,476.80935 C 90.999884,482.96345 96.425023,486.51113 103.34506,487.99952 C 111.13807,488.80364 119.00449,488.51085 126.83038,488.49026 C 129.70462,488.79024 132.39497,488.1837 135.12163,487.51133 L 120.8333,498.52533 C 118.01066,498.93087 115.21143,499.20288 112.34845,499.01589 C 104.4665,499.02635 96.52042,499.35405 88.701535,498.19896 C 81.404293,496.25034 75.67595,492.29692 71.718451,485.74872 C 69.69519,481.22284 68.261145,476.78792 68.643538,471.74614 L 84.899649,463.46324 z "
             id="path5808"
             style="fill:#0000d6;fill-opacity:1;fill-rule:nonzero;stroke:none;stroke-width:1px;stroke-linecap:butt;stroke-linejoin:miter;stroke-opacity:1" />
          <path
             d="M 101.59552,477.89659 C 122.76469,463.37745 114.60325,469.58309 112.38183,483.14555 C 111.29257,489.26355 111.031,495.41387 111.00048,501.61637 C 111.20421,506.02354 112.03198,510.3138 113.24518,514.5397 L 97.41154,523.1458 C 96.126984,518.75822 95.327949,514.31706 95.05236,509.74078 C 95.044238,503.4874 95.051823,497.24898 96.308827,491.09807 C 98.511822,476.39497 99.049818,474.24029 116.35576,467.17265 L 101.59552,477.89659 z "
             id="path5810"
             style="fill:#0000d6;fill-opacity:1;fill-rule:nonzero;stroke:none;stroke-width:1px;stroke-linecap:butt;stroke-linejoin:miter;stroke-opacity:1" />
          <path
             d="M 70.663843,569.48928 C 87.120364,556.589 90.119833,559.04833 95.242229,574.98541 C 97.823723,580.06969 97.576199,585.80676 98.789893,591.18988 C 101.80753,596.82076 107.33838,597.46422 113.13928,597.59269 C 118.00078,599.88783 117.74472,605.48013 118.07328,610.45967 C 117.59429,622.4675 101.38404,627.05831 90.736811,628.10866 C 84.792402,628.65056 79.163946,628.58218 73.885017,625.72012 L 89.089676,615.97149 C 94.276882,617.97634 99.525,618.1948 105.10464,617.43476 C 124.57233,614.41709 92.595303,631.00559 102.05937,618.69319 C 101.87025,614.63795 102.4042,609.67205 98.539357,608.15446 C 92.107685,607.71489 86.376161,606.07273 83.088414,600.00704 C 81.42249,594.62007 82.167174,588.79997 79.543618,583.6116 C 74.450647,568.22251 66.285627,571.53977 86.919954,561.20637 L 70.663843,569.48928 z "
             id="path5840"
             style="fill:#0000d6;fill-opacity:1;fill-rule:nonzero;stroke:none;stroke-width:1px;stroke-linecap:butt;stroke-linejoin:miter;stroke-opacity:1" />
        </g>
        <path
           style="fill:#0000d6;fill-opacity:1;fill-rule:nonzero;stroke:none;stroke-width:1px;stroke-linecap:butt;stroke-linejoin:miter;stroke-opacity:1"
           id="path5844"
           d="M 159.02383,620.71584 C 168.92553,630.25555 168.23424,624.49871 150.65641,636.03247 C 136.0078,635.85457 159.47319,630.18011 161.64212,629.28638 C 162.26467,629.52247 162.92999,629.5515 163.57393,629.68406 L 148.76875,639.95475 C 148.75811,639.95127 146.57555,639.39197 146.62072,639.25111 C 135.49853,630.94713 157.53138,621.51276 166.03713,626.38105 C 151.53376,637.54005 154.15659,639.84942 144.26359,631.43978 L 159.02383,620.71584 z " />
      </g>
    </g>
    <g
       id="g7636"
       style="fill:#377701;fill-opacity:0.86956519">
      <path
         d="M 26.310801,207.89465 C 26.766219,211.74184 28.216376,215.57103 29.438857,219.27589 C 36.725359,230.16648 43.92137,221.84356 21.283931,234.23391 C 24.563077,227.35117 29.148285,221.01413 33.647127,214.78106 C 38.181506,207.66092 41.31358,199.78774 46.348351,192.98836 C 49.40257,189.40126 52.792281,186.10232 56.299917,182.96947 L 73.015543,176.18956 C 69.389033,179.19478 66.070389,182.55966 62.777387,185.94588 C 57.407737,192.52714 54.30656,200.4566 49.959506,207.70029 C 45.530854,213.83829 40.305183,219.9612 38.042365,227.2413 C 24.398739,234.99176 21.037915,240.18847 13.719631,228.02387 C 12.390556,224.12488 11.040639,220.14569 10.05469,216.17755 L 26.310801,207.89465 z "
         id="path5846"
         style="fill:#377701;fill-opacity:0.86956519;fill-rule:nonzero;stroke:none;stroke-width:1px;stroke-linecap:butt;stroke-linejoin:miter;stroke-opacity:1" />
      <path
         d="M 30.73446,303.52794 C 33.612901,307.60803 35.172489,312.24966 38.908711,315.37871 C 15.8793,332.88727 31.284926,314.36439 38.399914,302.3262 C 41.768548,296.44445 45.722047,290.94218 50.310048,285.97244 L 66.87606,279.11072 C 61.986347,283.82633 58.107465,289.41696 54.504707,295.17348 C 45.337785,310.52329 43.051455,319.45249 23.830181,325.29001 C 20.533465,322.44848 17.937317,316.53522 15.97422,314.25188 L 30.73446,303.52794 z "
         id="path5848"
         style="fill:#377701;fill-opacity:0.86956519;fill-rule:nonzero;stroke:none;stroke-width:1px;stroke-linecap:butt;stroke-linejoin:miter;stroke-opacity:1" />
    </g>
    <path
       style="fill:#000000;fill-opacity:1;fill-rule:nonzero;stroke:none;stroke-width:1px;stroke-linecap:butt;stroke-linejoin:miter;stroke-opacity:1"
       id="path5850"
       d="M 26.69385,399.49243 C 33.30437,399.61464 40.021032,399.30231 46.555363,398.25074 C 51.541946,397.34758 56.624111,397.52198 61.668101,397.5297 C 45.203322,410.62647 53.439911,405.44025 43.834717,398.28135 C 29.127282,394.76427 41.16953,390.61356 52.715087,384.75884 C 56.882902,387.82966 59.898971,391.70647 62.483444,396.13532 C 64.340855,400.65338 68.257893,402.19974 68.641778,406.99542 C 65.42587,410.47947 61.376243,413.1282 57.887673,416.3836 C 55.458108,418.74275 52.944302,420.92495 50.201809,422.89196 L 33.449924,429.75407 C 36.056531,427.57492 38.840505,425.64596 41.233753,423.14444 C 44.669324,419.96492 48.189525,416.9294 52.032659,414.26739 C 51.395473,412.16509 48.814596,408.40406 46.888551,405.12349 C 44.425824,400.92687 41.559596,397.23424 37.43194,394.51691 C 56.813425,382.62112 46.484632,384.69617 58.880329,388.28981 C 70.568463,397.64435 61.163918,403.60847 47.078303,408.12653 C 42.108857,408.13081 37.123098,408.07844 32.214198,408.99319 C 25.477508,409.6886 18.707671,410.15408 11.93361,410.21637 L 26.69385,399.49243 z " />
  </g>
</svg>
